G04 #@! TF.FileFunction,Soldermask,Top*
%FSLAX46Y46*%
G04 Gerber Fmt 4.6, Leading zero omitted, Abs format (unit mm)*
G04 Created by KiCad (PCBNEW (2015-03-21 BZR 5528)-product) date Wed 25 Mar 2015 08:48:55 AM EET*
%MOMM*%
G01*
G04 APERTURE LIST*
%ADD10C,0.100000*%
%ADD11C,0.075000*%
%ADD12C,0.002540*%
%ADD13R,0.700000X0.250000*%
%ADD14R,0.250000X0.700000*%
%ADD15R,1.725000X1.725000*%
%ADD16R,0.800100X0.698500*%
%ADD17R,1.600200X1.803400*%
%ADD18R,0.500000X0.400000*%
%ADD19R,0.400000X0.500000*%
G04 APERTURE END LIST*
D10*
D11*
X2260000Y-9224000D02*
X2260000Y-9684000D01*
X2350000Y-9224000D02*
X2400000Y-9224000D01*
X2300000Y-9254000D02*
X2350000Y-9224000D01*
X2280000Y-9274000D02*
X2300000Y-9254000D01*
X2260000Y-9344000D02*
X2280000Y-9274000D01*
X2700000Y-9684000D02*
X2750000Y-9654000D01*
X2600000Y-9684000D02*
X2700000Y-9684000D01*
X2560000Y-9654000D02*
X2600000Y-9684000D01*
X2540000Y-9584000D02*
X2560000Y-9654000D01*
X2540000Y-9314000D02*
X2540000Y-9584000D01*
X2570000Y-9254000D02*
X2540000Y-9314000D01*
X2610000Y-9224000D02*
X2570000Y-9254000D01*
X2710000Y-9224000D02*
X2610000Y-9224000D01*
X2750000Y-9264000D02*
X2710000Y-9224000D01*
X2770000Y-9334000D02*
X2750000Y-9264000D01*
X2770000Y-9454000D02*
X2770000Y-9334000D01*
X2770000Y-9454000D02*
X2540000Y-9454000D01*
X2020000Y-9314000D02*
X2020000Y-9684000D01*
X1990000Y-9254000D02*
X2020000Y-9314000D01*
X1950000Y-9224000D02*
X1990000Y-9254000D01*
X1850000Y-9224000D02*
X1950000Y-9224000D01*
X1800000Y-9254000D02*
X1850000Y-9224000D01*
X1860000Y-9414000D02*
X1810000Y-9444000D01*
X1980000Y-9414000D02*
X1860000Y-9414000D01*
X2020000Y-9384000D02*
X1980000Y-9414000D01*
X1970000Y-9684000D02*
X2020000Y-9644000D01*
X1850000Y-9684000D02*
X1970000Y-9684000D01*
X1800000Y-9644000D02*
X1850000Y-9684000D01*
X1780000Y-9584000D02*
X1800000Y-9644000D01*
X1780000Y-9514000D02*
X1780000Y-9584000D01*
X1810000Y-9444000D02*
X1780000Y-9514000D01*
X1230000Y-9224000D02*
X1330000Y-9684000D01*
X1330000Y-9684000D02*
X1420000Y-9344000D01*
X1420000Y-9344000D02*
X1520000Y-9684000D01*
X1520000Y-9684000D02*
X1620000Y-9224000D01*
X1040000Y-9654000D02*
X1000000Y-9684000D01*
X1000000Y-9684000D02*
X890000Y-9684000D01*
X890000Y-9684000D02*
X850000Y-9654000D01*
X850000Y-9654000D02*
X830000Y-9624000D01*
X830000Y-9624000D02*
X800000Y-9554000D01*
X800000Y-9554000D02*
X800000Y-9354000D01*
X800000Y-9354000D02*
X830000Y-9284000D01*
X830000Y-9284000D02*
X850000Y-9254000D01*
X850000Y-9254000D02*
X910000Y-9214000D01*
X910000Y-9214000D02*
X980000Y-9214000D01*
X980000Y-9214000D02*
X1040000Y-9254000D01*
X1040000Y-8984000D02*
X1040000Y-9684000D01*
X520000Y-9344000D02*
X540000Y-9274000D01*
X540000Y-9274000D02*
X560000Y-9254000D01*
X560000Y-9254000D02*
X610000Y-9224000D01*
X610000Y-9224000D02*
X660000Y-9224000D01*
X520000Y-9224000D02*
X520000Y-9684000D01*
X70000Y-9444000D02*
X40000Y-9514000D01*
X40000Y-9514000D02*
X40000Y-9584000D01*
X40000Y-9584000D02*
X60000Y-9644000D01*
X60000Y-9644000D02*
X110000Y-9684000D01*
X110000Y-9684000D02*
X230000Y-9684000D01*
X230000Y-9684000D02*
X280000Y-9644000D01*
X280000Y-9384000D02*
X240000Y-9414000D01*
X240000Y-9414000D02*
X120000Y-9414000D01*
X120000Y-9414000D02*
X70000Y-9444000D01*
X60000Y-9254000D02*
X110000Y-9224000D01*
X110000Y-9224000D02*
X210000Y-9224000D01*
X210000Y-9224000D02*
X250000Y-9254000D01*
X250000Y-9254000D02*
X280000Y-9314000D01*
X280000Y-9314000D02*
X280000Y-9684000D01*
X-390000Y-9294000D02*
X-370000Y-9254000D01*
X-370000Y-9254000D02*
X-320000Y-9224000D01*
X-320000Y-9224000D02*
X-240000Y-9224000D01*
X-240000Y-9224000D02*
X-200000Y-9254000D01*
X-200000Y-9254000D02*
X-180000Y-9314000D01*
X-180000Y-9314000D02*
X-180000Y-9684000D01*
X-390000Y-8984000D02*
X-390000Y-9684000D01*
X-1540000Y-9454000D02*
X-1770000Y-9454000D01*
X-1320000Y-9284000D02*
X-1300000Y-9254000D01*
X-1300000Y-9254000D02*
X-1260000Y-9224000D01*
X-1260000Y-9224000D02*
X-1170000Y-9224000D01*
X-1170000Y-9224000D02*
X-1130000Y-9254000D01*
X-1130000Y-9254000D02*
X-1110000Y-9314000D01*
X-1110000Y-9314000D02*
X-1110000Y-9684000D01*
X-1320000Y-9224000D02*
X-1320000Y-9684000D01*
X-1540000Y-9454000D02*
X-1540000Y-9334000D01*
X-1540000Y-9334000D02*
X-1560000Y-9264000D01*
X-1560000Y-9264000D02*
X-1600000Y-9224000D01*
X-1600000Y-9224000D02*
X-1700000Y-9224000D01*
X-1700000Y-9224000D02*
X-1740000Y-9254000D01*
X-1740000Y-9254000D02*
X-1770000Y-9314000D01*
X-1770000Y-9314000D02*
X-1770000Y-9584000D01*
X-1770000Y-9584000D02*
X-1750000Y-9654000D01*
X-1750000Y-9654000D02*
X-1710000Y-9684000D01*
X-1710000Y-9684000D02*
X-1610000Y-9684000D01*
X-1610000Y-9684000D02*
X-1560000Y-9654000D01*
X-2200000Y-9254000D02*
X-2160000Y-9224000D01*
X-2160000Y-9224000D02*
X-2060000Y-9224000D01*
X-2060000Y-9224000D02*
X-2020000Y-9254000D01*
X-2020000Y-9254000D02*
X-1990000Y-9284000D01*
X-1990000Y-9284000D02*
X-1970000Y-9344000D01*
X-1970000Y-9344000D02*
X-1970000Y-9564000D01*
X-1970000Y-9564000D02*
X-1990000Y-9624000D01*
X-1990000Y-9624000D02*
X-2010000Y-9654000D01*
X-2010000Y-9654000D02*
X-2050000Y-9684000D01*
X-2050000Y-9684000D02*
X-2150000Y-9684000D01*
X-2150000Y-9684000D02*
X-2200000Y-9654000D01*
X-2200000Y-9924000D02*
X-2200000Y-9224000D01*
X-2510000Y-9224000D02*
X-2590000Y-9224000D01*
X-2590000Y-9224000D02*
X-2630000Y-9254000D01*
X-2630000Y-9254000D02*
X-2650000Y-9284000D01*
X-2650000Y-9284000D02*
X-2680000Y-9354000D01*
X-2590000Y-9684000D02*
X-2510000Y-9684000D01*
X-2510000Y-9684000D02*
X-2460000Y-9654000D01*
X-2460000Y-9654000D02*
X-2440000Y-9624000D01*
X-2440000Y-9624000D02*
X-2420000Y-9554000D01*
X-2420000Y-9554000D02*
X-2420000Y-9354000D01*
X-2420000Y-9354000D02*
X-2440000Y-9294000D01*
X-2440000Y-9294000D02*
X-2460000Y-9264000D01*
X-2460000Y-9264000D02*
X-2510000Y-9224000D01*
X-2680000Y-9354000D02*
X-2680000Y-9554000D01*
X-2680000Y-9554000D02*
X-2660000Y-9614000D01*
X-2660000Y-9614000D02*
X-2640000Y-9644000D01*
X-2640000Y-9644000D02*
X-2590000Y-9684000D01*
D12*
G36*
X-1513840Y-8849360D02*
X-1488440Y-8834120D01*
X-1430020Y-8798560D01*
X-1346200Y-8742680D01*
X-1247140Y-8676640D01*
X-1148080Y-8610600D01*
X-1066800Y-8557260D01*
X-1010920Y-8519160D01*
X-985520Y-8506460D01*
X-972820Y-8511540D01*
X-927100Y-8534400D01*
X-858520Y-8569960D01*
X-817880Y-8590280D01*
X-756920Y-8615680D01*
X-723900Y-8623300D01*
X-718820Y-8613140D01*
X-695960Y-8564880D01*
X-660400Y-8483600D01*
X-614680Y-8374380D01*
X-558800Y-8247380D01*
X-502920Y-8112760D01*
X-444500Y-7973060D01*
X-388620Y-7838440D01*
X-340360Y-7719060D01*
X-299720Y-7622540D01*
X-274320Y-7553960D01*
X-264160Y-7526020D01*
X-266700Y-7518400D01*
X-299720Y-7487920D01*
X-353060Y-7447280D01*
X-472440Y-7350760D01*
X-589280Y-7205980D01*
X-660400Y-7040880D01*
X-683260Y-6855460D01*
X-662940Y-6685280D01*
X-596900Y-6522720D01*
X-482600Y-6375400D01*
X-342900Y-6266180D01*
X-180340Y-6197600D01*
X0Y-6174740D01*
X172720Y-6195060D01*
X340360Y-6261100D01*
X487680Y-6372860D01*
X551180Y-6443980D01*
X637540Y-6593840D01*
X685800Y-6751320D01*
X690880Y-6791960D01*
X683260Y-6967220D01*
X632460Y-7137400D01*
X538480Y-7287260D01*
X408940Y-7411720D01*
X393700Y-7421880D01*
X335280Y-7467600D01*
X294640Y-7498080D01*
X264160Y-7523480D01*
X487680Y-8061960D01*
X523240Y-8145780D01*
X584200Y-8293100D01*
X637540Y-8420100D01*
X680720Y-8521700D01*
X711200Y-8587740D01*
X723900Y-8615680D01*
X723900Y-8618220D01*
X744220Y-8620760D01*
X784860Y-8605520D01*
X861060Y-8569960D01*
X909320Y-8544560D01*
X967740Y-8516620D01*
X993140Y-8506460D01*
X1016000Y-8519160D01*
X1069340Y-8554720D01*
X1150620Y-8608060D01*
X1247140Y-8671560D01*
X1338580Y-8735060D01*
X1422400Y-8790940D01*
X1483360Y-8829040D01*
X1513840Y-8846820D01*
X1518920Y-8846820D01*
X1544320Y-8831580D01*
X1592580Y-8790940D01*
X1666240Y-8722360D01*
X1770380Y-8618220D01*
X1785620Y-8602980D01*
X1871980Y-8516620D01*
X1940560Y-8442960D01*
X1986280Y-8392160D01*
X2004060Y-8369300D01*
X2004060Y-8369300D01*
X1988820Y-8338820D01*
X1950720Y-8277860D01*
X1894840Y-8191500D01*
X1826260Y-8092440D01*
X1648460Y-7833360D01*
X1744980Y-7589520D01*
X1775460Y-7513320D01*
X1813560Y-7424420D01*
X1841500Y-7358380D01*
X1856740Y-7330440D01*
X1882140Y-7320280D01*
X1950720Y-7305040D01*
X2047240Y-7284720D01*
X2161540Y-7264400D01*
X2273300Y-7244080D01*
X2372360Y-7223760D01*
X2443480Y-7211060D01*
X2476500Y-7203440D01*
X2484120Y-7198360D01*
X2491740Y-7183120D01*
X2494280Y-7150100D01*
X2496820Y-7089140D01*
X2499360Y-6995160D01*
X2499360Y-6855460D01*
X2499360Y-6840220D01*
X2496820Y-6710680D01*
X2494280Y-6604000D01*
X2491740Y-6537960D01*
X2486660Y-6510020D01*
X2486660Y-6510020D01*
X2456180Y-6502400D01*
X2385060Y-6487160D01*
X2286000Y-6469380D01*
X2166620Y-6446520D01*
X2159000Y-6443980D01*
X2042160Y-6421120D01*
X1943100Y-6400800D01*
X1871980Y-6385560D01*
X1844040Y-6375400D01*
X1836420Y-6367780D01*
X1813560Y-6322060D01*
X1780540Y-6248400D01*
X1739900Y-6159500D01*
X1701800Y-6065520D01*
X1668780Y-5981700D01*
X1645920Y-5920740D01*
X1638300Y-5892800D01*
X1640840Y-5890260D01*
X1658620Y-5862320D01*
X1699260Y-5801360D01*
X1755140Y-5717540D01*
X1823720Y-5615940D01*
X1828800Y-5608320D01*
X1897380Y-5509260D01*
X1953260Y-5422900D01*
X1988820Y-5364480D01*
X2004060Y-5336540D01*
X2004060Y-5334000D01*
X1981200Y-5303520D01*
X1930400Y-5247640D01*
X1856740Y-5171440D01*
X1770380Y-5082540D01*
X1742440Y-5057140D01*
X1643380Y-4960620D01*
X1577340Y-4899660D01*
X1534160Y-4866640D01*
X1513840Y-4859020D01*
X1513840Y-4859020D01*
X1483360Y-4876800D01*
X1419860Y-4917440D01*
X1336040Y-4975860D01*
X1234440Y-5044440D01*
X1226820Y-5049520D01*
X1127760Y-5118100D01*
X1043940Y-5173980D01*
X985520Y-5214620D01*
X957580Y-5229860D01*
X955040Y-5229860D01*
X914400Y-5217160D01*
X843280Y-5191760D01*
X754380Y-5158740D01*
X662940Y-5120640D01*
X579120Y-5085080D01*
X515620Y-5057140D01*
X485140Y-5039360D01*
X485140Y-5039360D01*
X474980Y-5003800D01*
X457200Y-4927600D01*
X436880Y-4826000D01*
X411480Y-4704080D01*
X408940Y-4683760D01*
X386080Y-4564380D01*
X368300Y-4465320D01*
X353060Y-4396740D01*
X345440Y-4368800D01*
X330200Y-4366260D01*
X271780Y-4361180D01*
X182880Y-4358640D01*
X73660Y-4358640D01*
X-38100Y-4358640D01*
X-147320Y-4361180D01*
X-241300Y-4363720D01*
X-309880Y-4368800D01*
X-337820Y-4373880D01*
X-337820Y-4376420D01*
X-347980Y-4414520D01*
X-365760Y-4488180D01*
X-386080Y-4592320D01*
X-408940Y-4714240D01*
X-414020Y-4737100D01*
X-436880Y-4853940D01*
X-457200Y-4953000D01*
X-469900Y-5019040D01*
X-477520Y-5046980D01*
X-490220Y-5052060D01*
X-538480Y-5072380D01*
X-617220Y-5105400D01*
X-716280Y-5146040D01*
X-944880Y-5237480D01*
X-1226820Y-5046980D01*
X-1252220Y-5029200D01*
X-1353820Y-4960620D01*
X-1435100Y-4904740D01*
X-1493520Y-4866640D01*
X-1516380Y-4853940D01*
X-1518920Y-4853940D01*
X-1546860Y-4879340D01*
X-1602740Y-4932680D01*
X-1678940Y-5006340D01*
X-1767840Y-5092700D01*
X-1831340Y-5158740D01*
X-1910080Y-5237480D01*
X-1958340Y-5290820D01*
X-1986280Y-5323840D01*
X-1993900Y-5344160D01*
X-1991360Y-5359400D01*
X-1973580Y-5387340D01*
X-1932940Y-5448300D01*
X-1874520Y-5534660D01*
X-1805940Y-5633720D01*
X-1750060Y-5717540D01*
X-1689100Y-5811520D01*
X-1651000Y-5877560D01*
X-1635760Y-5910580D01*
X-1640840Y-5923280D01*
X-1658620Y-5979160D01*
X-1694180Y-6062980D01*
X-1734820Y-6162040D01*
X-1833880Y-6383020D01*
X-1978660Y-6410960D01*
X-2067560Y-6428740D01*
X-2189480Y-6451600D01*
X-2308860Y-6474460D01*
X-2491740Y-6510020D01*
X-2499360Y-7185660D01*
X-2471420Y-7198360D01*
X-2443480Y-7205980D01*
X-2374900Y-7221220D01*
X-2278380Y-7241540D01*
X-2161540Y-7261860D01*
X-2065020Y-7279640D01*
X-1965960Y-7299960D01*
X-1894840Y-7312660D01*
X-1864360Y-7320280D01*
X-1854200Y-7330440D01*
X-1831340Y-7378700D01*
X-1795780Y-7454900D01*
X-1755140Y-7546340D01*
X-1717040Y-7640320D01*
X-1681480Y-7729220D01*
X-1658620Y-7795260D01*
X-1648460Y-7828280D01*
X-1661160Y-7856220D01*
X-1699260Y-7914640D01*
X-1752600Y-7995920D01*
X-1821180Y-8094980D01*
X-1887220Y-8191500D01*
X-1945640Y-8275320D01*
X-1983740Y-8336280D01*
X-2001520Y-8364220D01*
X-1991360Y-8382000D01*
X-1953260Y-8430260D01*
X-1879600Y-8506460D01*
X-1767840Y-8615680D01*
X-1750060Y-8633460D01*
X-1663700Y-8717280D01*
X-1590040Y-8785860D01*
X-1536700Y-8831580D01*
X-1513840Y-8849360D01*
X-1513840Y-8849360D01*
G37*
X-1513840Y-8849360D02*
X-1488440Y-8834120D01*
X-1430020Y-8798560D01*
X-1346200Y-8742680D01*
X-1247140Y-8676640D01*
X-1148080Y-8610600D01*
X-1066800Y-8557260D01*
X-1010920Y-8519160D01*
X-985520Y-8506460D01*
X-972820Y-8511540D01*
X-927100Y-8534400D01*
X-858520Y-8569960D01*
X-817880Y-8590280D01*
X-756920Y-8615680D01*
X-723900Y-8623300D01*
X-718820Y-8613140D01*
X-695960Y-8564880D01*
X-660400Y-8483600D01*
X-614680Y-8374380D01*
X-558800Y-8247380D01*
X-502920Y-8112760D01*
X-444500Y-7973060D01*
X-388620Y-7838440D01*
X-340360Y-7719060D01*
X-299720Y-7622540D01*
X-274320Y-7553960D01*
X-264160Y-7526020D01*
X-266700Y-7518400D01*
X-299720Y-7487920D01*
X-353060Y-7447280D01*
X-472440Y-7350760D01*
X-589280Y-7205980D01*
X-660400Y-7040880D01*
X-683260Y-6855460D01*
X-662940Y-6685280D01*
X-596900Y-6522720D01*
X-482600Y-6375400D01*
X-342900Y-6266180D01*
X-180340Y-6197600D01*
X0Y-6174740D01*
X172720Y-6195060D01*
X340360Y-6261100D01*
X487680Y-6372860D01*
X551180Y-6443980D01*
X637540Y-6593840D01*
X685800Y-6751320D01*
X690880Y-6791960D01*
X683260Y-6967220D01*
X632460Y-7137400D01*
X538480Y-7287260D01*
X408940Y-7411720D01*
X393700Y-7421880D01*
X335280Y-7467600D01*
X294640Y-7498080D01*
X264160Y-7523480D01*
X487680Y-8061960D01*
X523240Y-8145780D01*
X584200Y-8293100D01*
X637540Y-8420100D01*
X680720Y-8521700D01*
X711200Y-8587740D01*
X723900Y-8615680D01*
X723900Y-8618220D01*
X744220Y-8620760D01*
X784860Y-8605520D01*
X861060Y-8569960D01*
X909320Y-8544560D01*
X967740Y-8516620D01*
X993140Y-8506460D01*
X1016000Y-8519160D01*
X1069340Y-8554720D01*
X1150620Y-8608060D01*
X1247140Y-8671560D01*
X1338580Y-8735060D01*
X1422400Y-8790940D01*
X1483360Y-8829040D01*
X1513840Y-8846820D01*
X1518920Y-8846820D01*
X1544320Y-8831580D01*
X1592580Y-8790940D01*
X1666240Y-8722360D01*
X1770380Y-8618220D01*
X1785620Y-8602980D01*
X1871980Y-8516620D01*
X1940560Y-8442960D01*
X1986280Y-8392160D01*
X2004060Y-8369300D01*
X2004060Y-8369300D01*
X1988820Y-8338820D01*
X1950720Y-8277860D01*
X1894840Y-8191500D01*
X1826260Y-8092440D01*
X1648460Y-7833360D01*
X1744980Y-7589520D01*
X1775460Y-7513320D01*
X1813560Y-7424420D01*
X1841500Y-7358380D01*
X1856740Y-7330440D01*
X1882140Y-7320280D01*
X1950720Y-7305040D01*
X2047240Y-7284720D01*
X2161540Y-7264400D01*
X2273300Y-7244080D01*
X2372360Y-7223760D01*
X2443480Y-7211060D01*
X2476500Y-7203440D01*
X2484120Y-7198360D01*
X2491740Y-7183120D01*
X2494280Y-7150100D01*
X2496820Y-7089140D01*
X2499360Y-6995160D01*
X2499360Y-6855460D01*
X2499360Y-6840220D01*
X2496820Y-6710680D01*
X2494280Y-6604000D01*
X2491740Y-6537960D01*
X2486660Y-6510020D01*
X2486660Y-6510020D01*
X2456180Y-6502400D01*
X2385060Y-6487160D01*
X2286000Y-6469380D01*
X2166620Y-6446520D01*
X2159000Y-6443980D01*
X2042160Y-6421120D01*
X1943100Y-6400800D01*
X1871980Y-6385560D01*
X1844040Y-6375400D01*
X1836420Y-6367780D01*
X1813560Y-6322060D01*
X1780540Y-6248400D01*
X1739900Y-6159500D01*
X1701800Y-6065520D01*
X1668780Y-5981700D01*
X1645920Y-5920740D01*
X1638300Y-5892800D01*
X1640840Y-5890260D01*
X1658620Y-5862320D01*
X1699260Y-5801360D01*
X1755140Y-5717540D01*
X1823720Y-5615940D01*
X1828800Y-5608320D01*
X1897380Y-5509260D01*
X1953260Y-5422900D01*
X1988820Y-5364480D01*
X2004060Y-5336540D01*
X2004060Y-5334000D01*
X1981200Y-5303520D01*
X1930400Y-5247640D01*
X1856740Y-5171440D01*
X1770380Y-5082540D01*
X1742440Y-5057140D01*
X1643380Y-4960620D01*
X1577340Y-4899660D01*
X1534160Y-4866640D01*
X1513840Y-4859020D01*
X1513840Y-4859020D01*
X1483360Y-4876800D01*
X1419860Y-4917440D01*
X1336040Y-4975860D01*
X1234440Y-5044440D01*
X1226820Y-5049520D01*
X1127760Y-5118100D01*
X1043940Y-5173980D01*
X985520Y-5214620D01*
X957580Y-5229860D01*
X955040Y-5229860D01*
X914400Y-5217160D01*
X843280Y-5191760D01*
X754380Y-5158740D01*
X662940Y-5120640D01*
X579120Y-5085080D01*
X515620Y-5057140D01*
X485140Y-5039360D01*
X485140Y-5039360D01*
X474980Y-5003800D01*
X457200Y-4927600D01*
X436880Y-4826000D01*
X411480Y-4704080D01*
X408940Y-4683760D01*
X386080Y-4564380D01*
X368300Y-4465320D01*
X353060Y-4396740D01*
X345440Y-4368800D01*
X330200Y-4366260D01*
X271780Y-4361180D01*
X182880Y-4358640D01*
X73660Y-4358640D01*
X-38100Y-4358640D01*
X-147320Y-4361180D01*
X-241300Y-4363720D01*
X-309880Y-4368800D01*
X-337820Y-4373880D01*
X-337820Y-4376420D01*
X-347980Y-4414520D01*
X-365760Y-4488180D01*
X-386080Y-4592320D01*
X-408940Y-4714240D01*
X-414020Y-4737100D01*
X-436880Y-4853940D01*
X-457200Y-4953000D01*
X-469900Y-5019040D01*
X-477520Y-5046980D01*
X-490220Y-5052060D01*
X-538480Y-5072380D01*
X-617220Y-5105400D01*
X-716280Y-5146040D01*
X-944880Y-5237480D01*
X-1226820Y-5046980D01*
X-1252220Y-5029200D01*
X-1353820Y-4960620D01*
X-1435100Y-4904740D01*
X-1493520Y-4866640D01*
X-1516380Y-4853940D01*
X-1518920Y-4853940D01*
X-1546860Y-4879340D01*
X-1602740Y-4932680D01*
X-1678940Y-5006340D01*
X-1767840Y-5092700D01*
X-1831340Y-5158740D01*
X-1910080Y-5237480D01*
X-1958340Y-5290820D01*
X-1986280Y-5323840D01*
X-1993900Y-5344160D01*
X-1991360Y-5359400D01*
X-1973580Y-5387340D01*
X-1932940Y-5448300D01*
X-1874520Y-5534660D01*
X-1805940Y-5633720D01*
X-1750060Y-5717540D01*
X-1689100Y-5811520D01*
X-1651000Y-5877560D01*
X-1635760Y-5910580D01*
X-1640840Y-5923280D01*
X-1658620Y-5979160D01*
X-1694180Y-6062980D01*
X-1734820Y-6162040D01*
X-1833880Y-6383020D01*
X-1978660Y-6410960D01*
X-2067560Y-6428740D01*
X-2189480Y-6451600D01*
X-2308860Y-6474460D01*
X-2491740Y-6510020D01*
X-2499360Y-7185660D01*
X-2471420Y-7198360D01*
X-2443480Y-7205980D01*
X-2374900Y-7221220D01*
X-2278380Y-7241540D01*
X-2161540Y-7261860D01*
X-2065020Y-7279640D01*
X-1965960Y-7299960D01*
X-1894840Y-7312660D01*
X-1864360Y-7320280D01*
X-1854200Y-7330440D01*
X-1831340Y-7378700D01*
X-1795780Y-7454900D01*
X-1755140Y-7546340D01*
X-1717040Y-7640320D01*
X-1681480Y-7729220D01*
X-1658620Y-7795260D01*
X-1648460Y-7828280D01*
X-1661160Y-7856220D01*
X-1699260Y-7914640D01*
X-1752600Y-7995920D01*
X-1821180Y-8094980D01*
X-1887220Y-8191500D01*
X-1945640Y-8275320D01*
X-1983740Y-8336280D01*
X-2001520Y-8364220D01*
X-1991360Y-8382000D01*
X-1953260Y-8430260D01*
X-1879600Y-8506460D01*
X-1767840Y-8615680D01*
X-1750060Y-8633460D01*
X-1663700Y-8717280D01*
X-1590040Y-8785860D01*
X-1536700Y-8831580D01*
X-1513840Y-8849360D01*
D13*
X-2400000Y1750000D03*
X-2400000Y1250000D03*
X-2400000Y750000D03*
X-2400000Y250000D03*
X-2400000Y-250000D03*
X-2400000Y-750000D03*
X-2400000Y-1250000D03*
X-2400000Y-1750000D03*
D14*
X-1750000Y-2400000D03*
X-1250000Y-2400000D03*
X-750000Y-2400000D03*
X-250000Y-2400000D03*
X250000Y-2400000D03*
X750000Y-2400000D03*
X1250000Y-2400000D03*
X1750000Y-2400000D03*
D13*
X2400000Y-1750000D03*
X2400000Y-1250000D03*
X2400000Y-750000D03*
X2400000Y-250000D03*
X2400000Y250000D03*
X2400000Y750000D03*
X2400000Y1250000D03*
X2400000Y1750000D03*
D14*
X1750000Y2400000D03*
X1250000Y2400000D03*
X750000Y2400000D03*
X250000Y2400000D03*
X-250000Y2400000D03*
X-750000Y2400000D03*
X-1250000Y2400000D03*
X-1750000Y2400000D03*
D15*
X862500Y-862500D03*
X862500Y862500D03*
X-862500Y-862500D03*
X-862500Y862500D03*
D16*
X3642360Y-1270000D03*
X4739640Y-1270000D03*
X-3855720Y-254000D03*
X-4953000Y-254000D03*
D17*
X-6985000Y-2540000D03*
X-4191000Y-2540000D03*
D18*
X-11400000Y-350000D03*
X-11400000Y350000D03*
X-12600000Y350000D03*
X-12600000Y-350000D03*
X11400000Y350000D03*
X11400000Y-350000D03*
X12600000Y-350000D03*
X12600000Y350000D03*
D19*
X-350000Y11400000D03*
X350000Y11400000D03*
X350000Y12600000D03*
X-350000Y12600000D03*
X350000Y-11400000D03*
X-350000Y-11400000D03*
X-350000Y-12600000D03*
X350000Y-12600000D03*
D10*
G36*
X5348685Y10364196D02*
X5695095Y10164196D01*
X5445095Y9731184D01*
X5098685Y9931184D01*
X5348685Y10364196D01*
X5348685Y10364196D01*
G37*
G36*
X5954903Y10014196D02*
X6301313Y9814196D01*
X6051313Y9381184D01*
X5704903Y9581184D01*
X5954903Y10014196D01*
X5954903Y10014196D01*
G37*
G36*
X6554903Y11053426D02*
X6901313Y10853426D01*
X6651313Y10420414D01*
X6304903Y10620414D01*
X6554903Y11053426D01*
X6554903Y11053426D01*
G37*
G36*
X5948685Y11403426D02*
X6295095Y11203426D01*
X6045095Y10770414D01*
X5698685Y10970414D01*
X5948685Y11403426D01*
X5948685Y11403426D01*
G37*
G36*
X9814196Y6301314D02*
X10014196Y5954904D01*
X9581184Y5704904D01*
X9381184Y6051314D01*
X9814196Y6301314D01*
X9814196Y6301314D01*
G37*
G36*
X10164196Y5695096D02*
X10364196Y5348686D01*
X9931184Y5098686D01*
X9731184Y5445096D01*
X10164196Y5695096D01*
X10164196Y5695096D01*
G37*
G36*
X11203426Y6295096D02*
X11403426Y5948686D01*
X10970414Y5698686D01*
X10770414Y6045096D01*
X11203426Y6295096D01*
X11203426Y6295096D01*
G37*
G36*
X10853426Y6901314D02*
X11053426Y6554904D01*
X10620414Y6304904D01*
X10420414Y6651314D01*
X10853426Y6901314D01*
X10853426Y6901314D01*
G37*
G36*
X-9814196Y-6301314D02*
X-10014196Y-5954904D01*
X-9581184Y-5704904D01*
X-9381184Y-6051314D01*
X-9814196Y-6301314D01*
X-9814196Y-6301314D01*
G37*
G36*
X-10164196Y-5695096D02*
X-10364196Y-5348686D01*
X-9931184Y-5098686D01*
X-9731184Y-5445096D01*
X-10164196Y-5695096D01*
X-10164196Y-5695096D01*
G37*
G36*
X-11203426Y-6295096D02*
X-11403426Y-5948686D01*
X-10970414Y-5698686D01*
X-10770414Y-6045096D01*
X-11203426Y-6295096D01*
X-11203426Y-6295096D01*
G37*
G36*
X-10853426Y-6901314D02*
X-11053426Y-6554904D01*
X-10620414Y-6304904D01*
X-10420414Y-6651314D01*
X-10853426Y-6901314D01*
X-10853426Y-6901314D01*
G37*
G36*
X-5348685Y-10364196D02*
X-5695095Y-10164196D01*
X-5445095Y-9731184D01*
X-5098685Y-9931184D01*
X-5348685Y-10364196D01*
X-5348685Y-10364196D01*
G37*
G36*
X-5954903Y-10014196D02*
X-6301313Y-9814196D01*
X-6051313Y-9381184D01*
X-5704903Y-9581184D01*
X-5954903Y-10014196D01*
X-5954903Y-10014196D01*
G37*
G36*
X-6554903Y-11053426D02*
X-6901313Y-10853426D01*
X-6651313Y-10420414D01*
X-6304903Y-10620414D01*
X-6554903Y-11053426D01*
X-6554903Y-11053426D01*
G37*
G36*
X-5948685Y-11403426D02*
X-6295095Y-11203426D01*
X-6045095Y-10770414D01*
X-5698685Y-10970414D01*
X-5948685Y-11403426D01*
X-5948685Y-11403426D01*
G37*
G36*
X-6301313Y9814196D02*
X-5954903Y10014196D01*
X-5704903Y9581184D01*
X-6051313Y9381184D01*
X-6301313Y9814196D01*
X-6301313Y9814196D01*
G37*
G36*
X-5695095Y10164196D02*
X-5348685Y10364196D01*
X-5098685Y9931184D01*
X-5445095Y9731184D01*
X-5695095Y10164196D01*
X-5695095Y10164196D01*
G37*
G36*
X-6295095Y11203426D02*
X-5948685Y11403426D01*
X-5698685Y10970414D01*
X-6045095Y10770414D01*
X-6295095Y11203426D01*
X-6295095Y11203426D01*
G37*
G36*
X-6901313Y10853426D02*
X-6554903Y11053426D01*
X-6304903Y10620414D01*
X-6651313Y10420414D01*
X-6901313Y10853426D01*
X-6901313Y10853426D01*
G37*
G36*
X-10364196Y5348686D02*
X-10164196Y5695096D01*
X-9731184Y5445096D01*
X-9931184Y5098686D01*
X-10364196Y5348686D01*
X-10364196Y5348686D01*
G37*
G36*
X-10014196Y5954904D02*
X-9814196Y6301314D01*
X-9381184Y6051314D01*
X-9581184Y5704904D01*
X-10014196Y5954904D01*
X-10014196Y5954904D01*
G37*
G36*
X-11053426Y6554904D02*
X-10853426Y6901314D01*
X-10420414Y6651314D01*
X-10620414Y6304904D01*
X-11053426Y6554904D01*
X-11053426Y6554904D01*
G37*
G36*
X-11403426Y5948686D02*
X-11203426Y6295096D01*
X-10770414Y6045096D01*
X-10970414Y5698686D01*
X-11403426Y5948686D01*
X-11403426Y5948686D01*
G37*
G36*
X10364196Y-5348686D02*
X10164196Y-5695096D01*
X9731184Y-5445096D01*
X9931184Y-5098686D01*
X10364196Y-5348686D01*
X10364196Y-5348686D01*
G37*
G36*
X10014196Y-5954904D02*
X9814196Y-6301314D01*
X9381184Y-6051314D01*
X9581184Y-5704904D01*
X10014196Y-5954904D01*
X10014196Y-5954904D01*
G37*
G36*
X11053426Y-6554904D02*
X10853426Y-6901314D01*
X10420414Y-6651314D01*
X10620414Y-6304904D01*
X11053426Y-6554904D01*
X11053426Y-6554904D01*
G37*
G36*
X11403426Y-5948686D02*
X11203426Y-6295096D01*
X10770414Y-6045096D01*
X10970414Y-5698686D01*
X11403426Y-5948686D01*
X11403426Y-5948686D01*
G37*
G36*
X6301313Y-9814196D02*
X5954903Y-10014196D01*
X5704903Y-9581184D01*
X6051313Y-9381184D01*
X6301313Y-9814196D01*
X6301313Y-9814196D01*
G37*
G36*
X5695095Y-10164196D02*
X5348685Y-10364196D01*
X5098685Y-9931184D01*
X5445095Y-9731184D01*
X5695095Y-10164196D01*
X5695095Y-10164196D01*
G37*
G36*
X6295095Y-11203426D02*
X5948685Y-11403426D01*
X5698685Y-10970414D01*
X6045095Y-10770414D01*
X6295095Y-11203426D01*
X6295095Y-11203426D01*
G37*
G36*
X6901313Y-10853426D02*
X6554903Y-11053426D01*
X6304903Y-10620414D01*
X6651313Y-10420414D01*
X6901313Y-10853426D01*
X6901313Y-10853426D01*
G37*
M02*
