G04 #@! TF.FileFunction,Copper,L2,Bot,Signal*
%FSLAX46Y46*%
G04 Gerber Fmt 4.6, Leading zero omitted, Abs format (unit mm)*
G04 Created by KiCad (PCBNEW (2015-03-21 BZR 5528)-product) date Wed 25 Mar 2015 08:48:55 AM EET*
%MOMM*%
G01*
G04 APERTURE LIST*
%ADD10C,0.100000*%
%ADD11C,1.300000*%
%ADD12C,17.800000*%
%ADD13R,5.200000X2.500000*%
%ADD14R,1.000760X0.899160*%
%ADD15R,0.899160X1.000760*%
%ADD16C,0.900000*%
%ADD17C,0.889000*%
%ADD18C,0.254000*%
G04 APERTURE END LIST*
D10*
G36*
X9341883Y-1516056D02*
X9807757Y222611D01*
X11063461Y-113854D01*
X10597587Y-1852521D01*
X9341883Y-1516056D01*
X9341883Y-1516056D01*
G37*
D11*
X9620329Y-2988288D02*
X9490919Y-3471250D01*
X12199229Y-1091112D02*
X12069819Y-1574074D01*
X11552181Y-3505926D02*
X11422771Y-3988888D01*
X14131081Y-1608750D02*
X14001671Y-2091712D01*
X13484033Y-4023564D02*
X13354623Y-4506526D01*
D12*
X0Y0D03*
D13*
X0Y-10985000D03*
X0Y10985000D03*
D14*
X-3683000Y-11567160D03*
X-3683000Y-13070840D03*
X-3556000Y12943840D03*
X-3556000Y11440160D03*
D15*
X13705840Y2667000D03*
X12202160Y2667000D03*
X13705840Y1524000D03*
X12202160Y1524000D03*
D16*
X11176000Y-7239000D03*
X6096000Y-11938000D03*
X-762000Y-13462000D03*
X-7366000Y-11430000D03*
X-12065000Y-6096000D03*
X-13462000Y762000D03*
X-11430000Y7366000D03*
X-6350000Y12192000D03*
X508000Y13462000D03*
X7366000Y11430000D03*
X12065000Y6096000D03*
X15112994Y-508000D03*
X16383000Y381000D03*
X14224000Y-7747000D03*
X8255000Y-13970000D03*
X381000Y-16256000D03*
X-7747000Y-14224000D03*
X-13970000Y-8382000D03*
X-16383000Y-254000D03*
X-14224000Y7747000D03*
X-8382000Y13970000D03*
X-254000Y16129000D03*
D17*
X7874000Y14224000D03*
D16*
X13843000Y8509000D03*
X14605000Y1143000D03*
X-10160000Y381000D03*
X8476501Y-4238253D03*
X-862500Y862500D03*
X-862500Y-862500D03*
X11198810Y1546810D03*
X11176000Y2667000D03*
X-2672703Y9162596D03*
X8758115Y-6076505D03*
X10287000Y-4572000D03*
X12069819Y-1574074D03*
D18*
X11176000Y-7239000D02*
X12799060Y-8323580D01*
X6096000Y-11938000D02*
X6959600Y-13665200D01*
X-762000Y-13462000D02*
X-762000Y-15240000D01*
X-7366000Y-11430000D02*
X-8274538Y-12856308D01*
X-12065000Y-6096000D02*
X-13716000Y-6858000D01*
X-13462000Y762000D02*
X-15240000Y762000D01*
X-11430000Y7366000D02*
X-13051336Y8173423D01*
X-6350000Y12192000D02*
X-7141737Y13526429D01*
X508000Y13462000D02*
X508000Y15240000D01*
X7366000Y11430000D02*
X8439079Y12791326D01*
X9398000Y12192000D02*
X8439079Y12791326D01*
X8439079Y12791326D02*
X7366000Y13462000D01*
X13716000Y6985000D02*
X14351000Y5461000D01*
X15367000Y1270000D02*
X15367000Y-762000D01*
X15367000Y-762000D02*
X15367000Y-1016000D01*
X15113000Y2624667D02*
X15367000Y1270000D01*
X14986000Y3302000D02*
X15113000Y2624667D01*
X14351000Y5461000D02*
X14986000Y3302000D01*
X13462000Y7493000D02*
X12446000Y9017000D01*
X12065000Y6096000D02*
X13716000Y6985000D01*
X13716000Y6985000D02*
X13462000Y7493000D01*
X10922000Y10795000D02*
X9398000Y12192000D01*
X12446000Y9017000D02*
X10922000Y10795000D01*
X14986000Y-3302000D02*
X15367000Y-1016000D01*
X14478000Y-5080000D02*
X14986000Y-3302000D01*
X13462000Y-7366000D02*
X14478000Y-5080000D01*
X11176000Y-10668000D02*
X12799060Y-8323580D01*
X12799060Y-8323580D02*
X13462000Y-7366000D01*
X8382000Y-12954000D02*
X11176000Y-10668000D01*
X5842000Y-14224000D02*
X6959600Y-13665200D01*
X6959600Y-13665200D02*
X8382000Y-12954000D01*
X2286000Y-15240000D02*
X5842000Y-14224000D01*
X-2540000Y-15240000D02*
X-762000Y-15240000D01*
X-762000Y-15240000D02*
X2286000Y-15240000D01*
X-3556000Y-14986000D02*
X-2540000Y-15240000D01*
X-6604000Y-13970000D02*
X-3556000Y-14986000D01*
X-9652000Y-11938000D02*
X-8274538Y-12856308D01*
X-8274538Y-12856308D02*
X-6604000Y-13970000D01*
X-11938000Y-9652000D02*
X-9652000Y-11938000D01*
X-13208000Y-7874000D02*
X-11938000Y-9652000D01*
X-14478000Y-5334000D02*
X-13716000Y-6858000D01*
X-13716000Y-6858000D02*
X-13208000Y-7874000D01*
X-15240000Y-1778000D02*
X-14478000Y-5334000D01*
X-15240000Y1524000D02*
X-15240000Y762000D01*
X-15240000Y762000D02*
X-15240000Y-1778000D01*
X-14732000Y4572000D02*
X-15240000Y1524000D01*
X-12954000Y8382000D02*
X-13051336Y8173423D01*
X-13051336Y8173423D02*
X-14732000Y4572000D01*
X-10668000Y10922000D02*
X-12954000Y8382000D01*
X-8382000Y12954000D02*
X-10668000Y10922000D01*
X-5080000Y14478000D02*
X-7141737Y13526429D01*
X-7141737Y13526429D02*
X-8382000Y12954000D01*
X-2032000Y15240000D02*
X-5080000Y14478000D01*
X2032000Y15240000D02*
X508000Y15240000D01*
X508000Y15240000D02*
X-2032000Y15240000D01*
X5080000Y14478000D02*
X2032000Y15240000D01*
X7366000Y13462000D02*
X5080000Y14478000D01*
X15367000Y-762000D02*
X15367000Y-633604D01*
X15367000Y-633604D02*
X15241396Y-508000D01*
X15241396Y-508000D02*
X15112994Y-508000D01*
X15105063Y2667000D02*
X15113000Y2667000D01*
X15113000Y2667000D02*
X15113000Y2624667D01*
X13705840Y2667000D02*
X15105063Y2667000D01*
X15968671Y379246D02*
X15968671Y379251D01*
X16383000Y381000D02*
X15968671Y379246D01*
X14224000Y-7747000D02*
X14001262Y-7692292D01*
X8255000Y-13970000D02*
X8255000Y-13716000D01*
X381000Y-16256000D02*
X254000Y-16129000D01*
X-13970000Y-8382000D02*
X-13705217Y-8249009D01*
X-16383000Y-254000D02*
X-16002000Y-381000D01*
X-14114585Y7684477D02*
X-14114585Y7684476D01*
X-14224000Y7747000D02*
X-14114585Y7684477D01*
X-8382000Y13970000D02*
X-8324921Y13624674D01*
X-254000Y16129000D02*
X-254000Y16002000D01*
X16002000Y-254000D02*
X15748000Y-2794000D01*
X13970000Y7765143D02*
X14351000Y7112000D01*
X15875000Y2159000D02*
X15968671Y379251D01*
X15968671Y379251D02*
X16002000Y-254000D01*
X15367000Y4445000D02*
X15875000Y2159000D01*
X14351000Y7112000D02*
X15367000Y4445000D01*
X12954000Y9398000D02*
X13637036Y8335938D01*
X12192000Y10414000D02*
X12954000Y9398000D01*
X11176000Y11430000D02*
X12192000Y10414000D01*
X9652000Y12700000D02*
X11176000Y11430000D01*
X7874000Y13970000D02*
X9652000Y12700000D01*
X6350000Y14732000D02*
X7874000Y13970000D01*
X4826000Y15240000D02*
X6350000Y14732000D01*
X2794000Y15748000D02*
X4826000Y15240000D01*
X762000Y16002000D02*
X2794000Y15748000D01*
X-1016000Y16002000D02*
X-254000Y16002000D01*
X-254000Y16002000D02*
X762000Y16002000D01*
X-2794000Y15748000D02*
X-1016000Y16002000D01*
X-4826000Y15240000D02*
X-2794000Y15748000D01*
X-7366000Y14224000D02*
X-4826000Y15240000D01*
X-9398000Y12954000D02*
X-8324921Y13624674D01*
X-8324921Y13624674D02*
X-7366000Y14224000D01*
X-11684000Y10922000D02*
X-9398000Y12954000D01*
X-13208000Y9144000D02*
X-11684000Y10922000D01*
X-14224000Y7493000D02*
X-14114585Y7684476D01*
X-14114585Y7684476D02*
X-13208000Y9144000D01*
X-14986000Y5588000D02*
X-14224000Y7493000D01*
X-15748000Y3048000D02*
X-14986000Y5588000D01*
X-16002000Y1016000D02*
X-15748000Y3048000D01*
X-16002000Y-762000D02*
X-16002000Y-381000D01*
X-16002000Y-381000D02*
X-16002000Y1016000D01*
X-15748000Y-2794000D02*
X-16002000Y-762000D01*
X-15494000Y-4064000D02*
X-15748000Y-2794000D01*
X-14478000Y-6858000D02*
X-15494000Y-4064000D01*
X-13208000Y-9144000D02*
X-13705217Y-8249009D01*
X-13705217Y-8249009D02*
X-14478000Y-6858000D01*
X-11938000Y-10668000D02*
X-13208000Y-9144000D01*
X-10160000Y-12446000D02*
X-11938000Y-10668000D01*
X-8636000Y-13462000D02*
X-10160000Y-12446000D01*
X-7493000Y-14097000D02*
X-8636000Y-13462000D01*
X-6350000Y-14732000D02*
X-7493000Y-14097000D01*
X-5080000Y-15240000D02*
X-6350000Y-14732000D01*
X-3048000Y-15748000D02*
X-5080000Y-15240000D01*
X-1270000Y-16002000D02*
X-3048000Y-15748000D01*
X1016000Y-16002000D02*
X254000Y-16129000D01*
X254000Y-16129000D02*
X-1270000Y-16002000D01*
X3048000Y-15748000D02*
X1016000Y-16002000D01*
X4826000Y-15240000D02*
X3048000Y-15748000D01*
X6350000Y-14732000D02*
X4826000Y-15240000D01*
X7874000Y-13970000D02*
X6350000Y-14732000D01*
X9398000Y-12954000D02*
X8255000Y-13716000D01*
X8255000Y-13716000D02*
X7874000Y-13970000D01*
X10668000Y-11938000D02*
X9398000Y-12954000D01*
X12192000Y-10414000D02*
X10668000Y-11938000D01*
X13462000Y-8636000D02*
X12192000Y-10414000D01*
X14478000Y-6858000D02*
X14001262Y-7692292D01*
X14001262Y-7692292D02*
X13462000Y-8636000D01*
X15240000Y-4826000D02*
X14478000Y-6858000D01*
X15748000Y-2794000D02*
X15240000Y-4826000D01*
X13637036Y8335938D02*
X13970000Y7765143D01*
X13462000Y8636000D02*
X13637036Y8335938D01*
X13843000Y8509000D02*
X13637036Y8335938D01*
X-7620000Y-14224000D02*
X-7493000Y-14097000D01*
X-7747000Y-14224000D02*
X-7620000Y-14224000D01*
X14224000Y1524000D02*
X14605000Y1143000D01*
X13705840Y1524000D02*
X14224000Y1524000D01*
X-2032000Y12954000D02*
X0Y10985000D01*
X-3556000Y12943840D02*
X-2032000Y12954000D01*
X-582160Y-11567160D02*
X0Y-10985000D01*
X-3683000Y-11567160D02*
X-582160Y-11567160D01*
X-10160000Y-5090160D02*
X-10160000Y381000D01*
X-3683000Y-11567160D02*
X-10160000Y-5090160D01*
X8476501Y-4874649D02*
X8476501Y-4238253D01*
X0Y-10985000D02*
X2854000Y-10985000D01*
X2854000Y-10985000D02*
X8476501Y-5362499D01*
X8476501Y-5362499D02*
X8476501Y-4874649D01*
X8476501Y-4132116D02*
X9620329Y-2988288D01*
X8476501Y-4238253D02*
X8476501Y-4132116D01*
X-862500Y862500D02*
X0Y0D01*
X-862500Y-862500D02*
X0Y0D01*
X0Y0D02*
X0Y-1270000D01*
X12179350Y1546810D02*
X12202160Y1524000D01*
X11198810Y1546810D02*
X12179350Y1546810D01*
X11176000Y2667000D02*
X12202160Y2667000D01*
X-3556000Y10038736D02*
X-3548843Y10038736D01*
X-3548843Y10038736D02*
X-2672703Y9162596D01*
X-3556000Y10038736D02*
X-3556000Y11440160D01*
X13081000Y254000D02*
X14001671Y-666671D01*
X9779000Y1651000D02*
X11176000Y254000D01*
X14001671Y-666671D02*
X14001671Y-2091712D01*
X9779000Y3768922D02*
X9779000Y1651000D01*
X4385326Y9162596D02*
X9779000Y3768922D01*
X11176000Y254000D02*
X13081000Y254000D01*
X-2672703Y9162596D02*
X4385326Y9162596D01*
X9208114Y-5626506D02*
X10502494Y-5626506D01*
X8758115Y-6076505D02*
X9208114Y-5626506D01*
X11552181Y-4576819D02*
X11552181Y-3505926D01*
X10502494Y-5626506D02*
X11552181Y-4576819D01*
X10758035Y-2216824D02*
X10137967Y-1056436D01*
X10287000Y-4572000D02*
X10758035Y-2216824D01*
G36*
X14475372Y3327792D02*
X14413397Y3422139D01*
X14295219Y3501911D01*
X14155420Y3529947D01*
X13256260Y3529947D01*
X13120671Y3503639D01*
X13001501Y3425357D01*
X12953913Y3354859D01*
X12909717Y3422139D01*
X12791539Y3501911D01*
X12651740Y3529947D01*
X11752580Y3529947D01*
X11616991Y3503639D01*
X11497821Y3425357D01*
X11487435Y3409972D01*
X11336947Y3472460D01*
X11016459Y3472740D01*
X10720260Y3350353D01*
X10493443Y3123932D01*
X10370540Y2827947D01*
X10370260Y2507459D01*
X10492647Y2211260D01*
X10608188Y2095517D01*
X10516253Y2003742D01*
X10396692Y1715808D01*
X10261600Y1850899D01*
X10261600Y3768922D01*
X10224864Y3953605D01*
X10120250Y4110172D01*
X4726576Y9503846D01*
X4570009Y9608460D01*
X4385326Y9645196D01*
X2944557Y9645196D01*
X2962567Y9735000D01*
X2962567Y12235000D01*
X2936259Y12370589D01*
X2857977Y12489759D01*
X2739799Y12569531D01*
X2600000Y12597567D01*
X-970659Y12597567D01*
X-1696165Y13300580D01*
X-1773419Y13350458D01*
X-1850293Y13401085D01*
X-1852486Y13401507D01*
X-1854360Y13402716D01*
X-1944905Y13419250D01*
X-2035217Y13436589D01*
X-2700569Y13432154D01*
X-2719361Y13529009D01*
X-2797643Y13648179D01*
X-2915821Y13727951D01*
X-3055620Y13755987D01*
X-4056380Y13755987D01*
X-4191969Y13729679D01*
X-4311139Y13651397D01*
X-4390911Y13533219D01*
X-4418947Y13393420D01*
X-4418947Y12494260D01*
X-4392639Y12358671D01*
X-4314357Y12239501D01*
X-4243859Y12191914D01*
X-4311139Y12147717D01*
X-4390911Y12029539D01*
X-4418947Y11889740D01*
X-4418947Y10990580D01*
X-4392639Y10854991D01*
X-4314357Y10735821D01*
X-4196179Y10656049D01*
X-4056380Y10628013D01*
X-4038600Y10628013D01*
X-4038600Y10038736D01*
X-4001864Y9854053D01*
X-3897250Y9697486D01*
X-3875682Y9683075D01*
X-3478197Y9285590D01*
X-3478443Y9003055D01*
X-3433888Y8895222D01*
X-5187479Y8222134D01*
X-5611099Y7939080D01*
X-6671700Y6851305D01*
X0Y179605D01*
X14142Y193748D01*
X193747Y14143D01*
X179605Y0D01*
X193747Y-14142D01*
X14142Y-193747D01*
X0Y-179605D01*
X-6671700Y-6851305D01*
X-5611099Y-7939080D01*
X-2391963Y-9372433D01*
X-2600000Y-9372433D01*
X-2735589Y-9398741D01*
X-2854759Y-9477023D01*
X-2934531Y-9595201D01*
X-2962567Y-9735000D01*
X-2962567Y-10837221D01*
X-3042821Y-10783049D01*
X-3182620Y-10755013D01*
X-3812647Y-10755013D01*
X-9677400Y-4890260D01*
X-9677400Y-275539D01*
X-9541953Y-140329D01*
X-9581423Y-1646131D01*
X-8222134Y-5187479D01*
X-7939080Y-5611099D01*
X-6851305Y-6671700D01*
X-179605Y0D01*
X-6851305Y6671700D01*
X-7939080Y5611099D01*
X-9482028Y2145825D01*
X-9515327Y875487D01*
X-9703068Y1063557D01*
X-9999053Y1186460D01*
X-10319541Y1186740D01*
X-10615740Y1064353D01*
X-10842557Y837932D01*
X-10965460Y541947D01*
X-10965740Y221459D01*
X-10843353Y-74740D01*
X-10642600Y-275844D01*
X-10642600Y-5090160D01*
X-10605864Y-5274843D01*
X-10501250Y-5431410D01*
X-4545947Y-11386713D01*
X-4545947Y-12016740D01*
X-4533846Y-12079108D01*
X-4543079Y-12082933D01*
X-4721707Y-12261562D01*
X-4818380Y-12494951D01*
X-4818380Y-12785090D01*
X-4659630Y-12943840D01*
X-3810000Y-12943840D01*
X-3810000Y-12923840D01*
X-3556000Y-12923840D01*
X-3556000Y-12943840D01*
X-2706370Y-12943840D01*
X-2547620Y-12785090D01*
X-2547620Y-12597567D01*
X2600000Y-12597567D01*
X2735589Y-12571259D01*
X2854759Y-12492977D01*
X2934531Y-12374799D01*
X2962567Y-12235000D01*
X2962567Y-11446004D01*
X3038683Y-11430864D01*
X3195250Y-11326250D01*
X8049761Y-6471738D01*
X8074762Y-6532245D01*
X8301183Y-6759062D01*
X8597168Y-6881965D01*
X8917656Y-6882245D01*
X9213855Y-6759858D01*
X9440672Y-6533437D01*
X9563575Y-6237452D01*
X9563687Y-6109106D01*
X10502494Y-6109106D01*
X10687177Y-6072370D01*
X10843744Y-5967756D01*
X11893427Y-4918071D01*
X11893431Y-4918069D01*
X11893431Y-4918068D01*
X11915722Y-4884706D01*
X11915723Y-4884706D01*
X11919206Y-4883524D01*
X12081851Y-4740887D01*
X12081803Y-4755271D01*
X12273881Y-5223424D01*
X12630492Y-5582435D01*
X12718505Y-5623030D01*
X12942315Y-5554592D01*
X13263785Y-4354848D01*
X13244466Y-4349671D01*
X13310206Y-4104325D01*
X13329525Y-4109502D01*
X13334701Y-4090183D01*
X13580047Y-4155923D01*
X13574871Y-4175242D01*
X13594189Y-4180418D01*
X13528449Y-4425764D01*
X13509131Y-4420588D01*
X13187660Y-5620332D01*
X13347266Y-5791506D01*
X13443785Y-5800356D01*
X13655245Y-5742934D01*
X13039408Y-7128568D01*
X12672486Y-7658566D01*
X11981637Y-7196920D01*
X11981740Y-7079459D01*
X11859353Y-6783260D01*
X11632932Y-6556443D01*
X11336947Y-6433540D01*
X11016459Y-6433260D01*
X10720260Y-6555647D01*
X10493443Y-6782068D01*
X10370540Y-7078053D01*
X10370260Y-7398541D01*
X10492647Y-7694740D01*
X10719068Y-7921557D01*
X11015053Y-8044460D01*
X11335541Y-8044740D01*
X11445301Y-7999387D01*
X12123010Y-8452254D01*
X10817854Y-10337478D01*
X8118045Y-12546414D01*
X7175425Y-13017723D01*
X6817335Y-12301543D01*
X6901460Y-12098947D01*
X6901740Y-11778459D01*
X6779353Y-11482260D01*
X6552932Y-11255443D01*
X6256947Y-11132540D01*
X5936459Y-11132260D01*
X5640260Y-11254647D01*
X5413443Y-11481068D01*
X5290540Y-11777053D01*
X5290260Y-12097541D01*
X5412647Y-12393740D01*
X5639068Y-12620557D01*
X5935053Y-12743460D01*
X5959177Y-12743481D01*
X6312123Y-13449374D01*
X5666292Y-13772290D01*
X2218411Y-14757400D01*
X-279400Y-14757400D01*
X-279400Y-14118539D01*
X-79443Y-13918932D01*
X43460Y-13622947D01*
X43740Y-13302459D01*
X-78647Y-13006260D01*
X-305068Y-12779443D01*
X-601053Y-12656540D01*
X-921541Y-12656260D01*
X-1217740Y-12778647D01*
X-1444557Y-13005068D01*
X-1567460Y-13301053D01*
X-1567740Y-13621541D01*
X-1445353Y-13917740D01*
X-1244600Y-14118844D01*
X-1244600Y-14757400D01*
X-2480588Y-14757400D01*
X-2547620Y-14740642D01*
X-2547620Y-13646729D01*
X-2547620Y-13356590D01*
X-2706370Y-13197840D01*
X-3556000Y-13197840D01*
X-3556000Y-13996670D01*
X-3397250Y-14155420D01*
X-3308929Y-14155420D01*
X-3056310Y-14155420D01*
X-2822921Y-14058747D01*
X-2644293Y-13880118D01*
X-2547620Y-13646729D01*
X-2547620Y-14740642D01*
X-3420972Y-14522304D01*
X-3810000Y-14392627D01*
X-3810000Y-13996670D01*
X-3810000Y-13197840D01*
X-4659630Y-13197840D01*
X-4818380Y-13356590D01*
X-4818380Y-13646729D01*
X-4721707Y-13880118D01*
X-4543079Y-14058747D01*
X-4309690Y-14155420D01*
X-4057071Y-14155420D01*
X-3968750Y-14155420D01*
X-3810000Y-13996670D01*
X-3810000Y-14392627D01*
X-6390080Y-13532601D01*
X-7613572Y-12716940D01*
X-7306998Y-12235652D01*
X-7206459Y-12235740D01*
X-6910260Y-12113353D01*
X-6683443Y-11886932D01*
X-6560540Y-11590947D01*
X-6560260Y-11270459D01*
X-6682647Y-10974260D01*
X-6909068Y-10747443D01*
X-7205053Y-10624540D01*
X-7525541Y-10624260D01*
X-7821740Y-10746647D01*
X-8048557Y-10973068D01*
X-8171460Y-11269053D01*
X-8171740Y-11589541D01*
X-8119835Y-11715161D01*
X-8416840Y-12181427D01*
X-9344538Y-11562962D01*
X-11568510Y-9338990D01*
X-12793284Y-7624305D01*
X-13061675Y-7087524D01*
X-12453664Y-6806904D01*
X-12225947Y-6901460D01*
X-11905459Y-6901740D01*
X-11609260Y-6779353D01*
X-11382443Y-6552932D01*
X-11259540Y-6256947D01*
X-11259260Y-5936459D01*
X-11381647Y-5640260D01*
X-11608068Y-5413443D01*
X-11904053Y-5290540D01*
X-12224541Y-5290260D01*
X-12520740Y-5412647D01*
X-12747557Y-5639068D01*
X-12870460Y-5935053D01*
X-12870462Y-5936229D01*
X-13493536Y-6223802D01*
X-14018950Y-5172974D01*
X-14757400Y-1726874D01*
X-14757400Y279400D01*
X-14118540Y279400D01*
X-13918932Y79443D01*
X-13622947Y-43460D01*
X-13302459Y-43740D01*
X-13006260Y78647D01*
X-12779443Y305068D01*
X-12656540Y601053D01*
X-12656260Y921541D01*
X-12778647Y1217740D01*
X-13005068Y1444557D01*
X-13301053Y1567460D01*
X-13621541Y1567740D01*
X-13917740Y1445353D01*
X-14118845Y1244600D01*
X-14757400Y1244600D01*
X-14757400Y1484057D01*
X-14266802Y4427646D01*
X-12823351Y7520755D01*
X-12235722Y7228117D01*
X-12235740Y7206459D01*
X-12113353Y6910260D01*
X-11886932Y6683443D01*
X-11590947Y6560540D01*
X-11270459Y6560260D01*
X-10974260Y6682647D01*
X-10747443Y6909068D01*
X-10624540Y7205053D01*
X-10624260Y7525541D01*
X-10746647Y7821740D01*
X-10973068Y8048557D01*
X-11269053Y8171460D01*
X-11589541Y8171740D01*
X-11794940Y8086872D01*
X-12330367Y8353514D01*
X-10327279Y10579166D01*
X-8114828Y12545790D01*
X-7334691Y12905853D01*
X-7094190Y12500503D01*
X-7155460Y12352947D01*
X-7155740Y12032459D01*
X-7033353Y11736260D01*
X-6806932Y11509443D01*
X-6510947Y11386540D01*
X-6190459Y11386260D01*
X-5894260Y11508647D01*
X-5667443Y11735068D01*
X-5544540Y12031053D01*
X-5544260Y12351541D01*
X-5666647Y12647740D01*
X-5893068Y12874557D01*
X-6189053Y12997460D01*
X-6266782Y12997528D01*
X-6453651Y13312487D01*
X-4918951Y14020810D01*
X-1972589Y14757400D01*
X25400Y14757400D01*
X25400Y14118540D01*
X-174557Y13918932D01*
X-297460Y13622947D01*
X-297740Y13302459D01*
X-175353Y13006260D01*
X51068Y12779443D01*
X347053Y12656540D01*
X667541Y12656260D01*
X963740Y12778647D01*
X1190557Y13005068D01*
X1313460Y13301053D01*
X1313740Y13621541D01*
X1191353Y13917740D01*
X990600Y14118844D01*
X990600Y14757400D01*
X1972588Y14757400D01*
X4922299Y14019973D01*
X7138997Y13034773D01*
X7726855Y12667361D01*
X7386502Y12235583D01*
X7206459Y12235740D01*
X6910260Y12113353D01*
X6683443Y11886932D01*
X6560540Y11590947D01*
X6560260Y11270459D01*
X6682647Y10974260D01*
X6909068Y10747443D01*
X7205053Y10624540D01*
X7525541Y10624260D01*
X7821740Y10746647D01*
X8048557Y10973068D01*
X8171460Y11269053D01*
X8171740Y11589541D01*
X8149222Y11644037D01*
X8550224Y12152755D01*
X9104596Y11806273D01*
X10574484Y10458877D01*
X12060620Y8725052D01*
X13043783Y7250307D01*
X13074964Y7187944D01*
X12404914Y6827147D01*
X12225947Y6901460D01*
X11905459Y6901740D01*
X11609260Y6779353D01*
X11382443Y6552932D01*
X11259540Y6256947D01*
X11259260Y5936459D01*
X11381647Y5640260D01*
X11608068Y5413443D01*
X11904053Y5290540D01*
X12224541Y5290260D01*
X12520740Y5412647D01*
X12747557Y5639068D01*
X12870460Y5935053D01*
X12870500Y5981616D01*
X13475518Y6307395D01*
X13895420Y5299631D01*
X14475372Y3327792D01*
X14475372Y3327792D01*
G37*
X14475372Y3327792D02*
X14413397Y3422139D01*
X14295219Y3501911D01*
X14155420Y3529947D01*
X13256260Y3529947D01*
X13120671Y3503639D01*
X13001501Y3425357D01*
X12953913Y3354859D01*
X12909717Y3422139D01*
X12791539Y3501911D01*
X12651740Y3529947D01*
X11752580Y3529947D01*
X11616991Y3503639D01*
X11497821Y3425357D01*
X11487435Y3409972D01*
X11336947Y3472460D01*
X11016459Y3472740D01*
X10720260Y3350353D01*
X10493443Y3123932D01*
X10370540Y2827947D01*
X10370260Y2507459D01*
X10492647Y2211260D01*
X10608188Y2095517D01*
X10516253Y2003742D01*
X10396692Y1715808D01*
X10261600Y1850899D01*
X10261600Y3768922D01*
X10224864Y3953605D01*
X10120250Y4110172D01*
X4726576Y9503846D01*
X4570009Y9608460D01*
X4385326Y9645196D01*
X2944557Y9645196D01*
X2962567Y9735000D01*
X2962567Y12235000D01*
X2936259Y12370589D01*
X2857977Y12489759D01*
X2739799Y12569531D01*
X2600000Y12597567D01*
X-970659Y12597567D01*
X-1696165Y13300580D01*
X-1773419Y13350458D01*
X-1850293Y13401085D01*
X-1852486Y13401507D01*
X-1854360Y13402716D01*
X-1944905Y13419250D01*
X-2035217Y13436589D01*
X-2700569Y13432154D01*
X-2719361Y13529009D01*
X-2797643Y13648179D01*
X-2915821Y13727951D01*
X-3055620Y13755987D01*
X-4056380Y13755987D01*
X-4191969Y13729679D01*
X-4311139Y13651397D01*
X-4390911Y13533219D01*
X-4418947Y13393420D01*
X-4418947Y12494260D01*
X-4392639Y12358671D01*
X-4314357Y12239501D01*
X-4243859Y12191914D01*
X-4311139Y12147717D01*
X-4390911Y12029539D01*
X-4418947Y11889740D01*
X-4418947Y10990580D01*
X-4392639Y10854991D01*
X-4314357Y10735821D01*
X-4196179Y10656049D01*
X-4056380Y10628013D01*
X-4038600Y10628013D01*
X-4038600Y10038736D01*
X-4001864Y9854053D01*
X-3897250Y9697486D01*
X-3875682Y9683075D01*
X-3478197Y9285590D01*
X-3478443Y9003055D01*
X-3433888Y8895222D01*
X-5187479Y8222134D01*
X-5611099Y7939080D01*
X-6671700Y6851305D01*
X0Y179605D01*
X14142Y193748D01*
X193747Y14143D01*
X179605Y0D01*
X193747Y-14142D01*
X14142Y-193747D01*
X0Y-179605D01*
X-6671700Y-6851305D01*
X-5611099Y-7939080D01*
X-2391963Y-9372433D01*
X-2600000Y-9372433D01*
X-2735589Y-9398741D01*
X-2854759Y-9477023D01*
X-2934531Y-9595201D01*
X-2962567Y-9735000D01*
X-2962567Y-10837221D01*
X-3042821Y-10783049D01*
X-3182620Y-10755013D01*
X-3812647Y-10755013D01*
X-9677400Y-4890260D01*
X-9677400Y-275539D01*
X-9541953Y-140329D01*
X-9581423Y-1646131D01*
X-8222134Y-5187479D01*
X-7939080Y-5611099D01*
X-6851305Y-6671700D01*
X-179605Y0D01*
X-6851305Y6671700D01*
X-7939080Y5611099D01*
X-9482028Y2145825D01*
X-9515327Y875487D01*
X-9703068Y1063557D01*
X-9999053Y1186460D01*
X-10319541Y1186740D01*
X-10615740Y1064353D01*
X-10842557Y837932D01*
X-10965460Y541947D01*
X-10965740Y221459D01*
X-10843353Y-74740D01*
X-10642600Y-275844D01*
X-10642600Y-5090160D01*
X-10605864Y-5274843D01*
X-10501250Y-5431410D01*
X-4545947Y-11386713D01*
X-4545947Y-12016740D01*
X-4533846Y-12079108D01*
X-4543079Y-12082933D01*
X-4721707Y-12261562D01*
X-4818380Y-12494951D01*
X-4818380Y-12785090D01*
X-4659630Y-12943840D01*
X-3810000Y-12943840D01*
X-3810000Y-12923840D01*
X-3556000Y-12923840D01*
X-3556000Y-12943840D01*
X-2706370Y-12943840D01*
X-2547620Y-12785090D01*
X-2547620Y-12597567D01*
X2600000Y-12597567D01*
X2735589Y-12571259D01*
X2854759Y-12492977D01*
X2934531Y-12374799D01*
X2962567Y-12235000D01*
X2962567Y-11446004D01*
X3038683Y-11430864D01*
X3195250Y-11326250D01*
X8049761Y-6471738D01*
X8074762Y-6532245D01*
X8301183Y-6759062D01*
X8597168Y-6881965D01*
X8917656Y-6882245D01*
X9213855Y-6759858D01*
X9440672Y-6533437D01*
X9563575Y-6237452D01*
X9563687Y-6109106D01*
X10502494Y-6109106D01*
X10687177Y-6072370D01*
X10843744Y-5967756D01*
X11893427Y-4918071D01*
X11893431Y-4918069D01*
X11893431Y-4918068D01*
X11915722Y-4884706D01*
X11915723Y-4884706D01*
X11919206Y-4883524D01*
X12081851Y-4740887D01*
X12081803Y-4755271D01*
X12273881Y-5223424D01*
X12630492Y-5582435D01*
X12718505Y-5623030D01*
X12942315Y-5554592D01*
X13263785Y-4354848D01*
X13244466Y-4349671D01*
X13310206Y-4104325D01*
X13329525Y-4109502D01*
X13334701Y-4090183D01*
X13580047Y-4155923D01*
X13574871Y-4175242D01*
X13594189Y-4180418D01*
X13528449Y-4425764D01*
X13509131Y-4420588D01*
X13187660Y-5620332D01*
X13347266Y-5791506D01*
X13443785Y-5800356D01*
X13655245Y-5742934D01*
X13039408Y-7128568D01*
X12672486Y-7658566D01*
X11981637Y-7196920D01*
X11981740Y-7079459D01*
X11859353Y-6783260D01*
X11632932Y-6556443D01*
X11336947Y-6433540D01*
X11016459Y-6433260D01*
X10720260Y-6555647D01*
X10493443Y-6782068D01*
X10370540Y-7078053D01*
X10370260Y-7398541D01*
X10492647Y-7694740D01*
X10719068Y-7921557D01*
X11015053Y-8044460D01*
X11335541Y-8044740D01*
X11445301Y-7999387D01*
X12123010Y-8452254D01*
X10817854Y-10337478D01*
X8118045Y-12546414D01*
X7175425Y-13017723D01*
X6817335Y-12301543D01*
X6901460Y-12098947D01*
X6901740Y-11778459D01*
X6779353Y-11482260D01*
X6552932Y-11255443D01*
X6256947Y-11132540D01*
X5936459Y-11132260D01*
X5640260Y-11254647D01*
X5413443Y-11481068D01*
X5290540Y-11777053D01*
X5290260Y-12097541D01*
X5412647Y-12393740D01*
X5639068Y-12620557D01*
X5935053Y-12743460D01*
X5959177Y-12743481D01*
X6312123Y-13449374D01*
X5666292Y-13772290D01*
X2218411Y-14757400D01*
X-279400Y-14757400D01*
X-279400Y-14118539D01*
X-79443Y-13918932D01*
X43460Y-13622947D01*
X43740Y-13302459D01*
X-78647Y-13006260D01*
X-305068Y-12779443D01*
X-601053Y-12656540D01*
X-921541Y-12656260D01*
X-1217740Y-12778647D01*
X-1444557Y-13005068D01*
X-1567460Y-13301053D01*
X-1567740Y-13621541D01*
X-1445353Y-13917740D01*
X-1244600Y-14118844D01*
X-1244600Y-14757400D01*
X-2480588Y-14757400D01*
X-2547620Y-14740642D01*
X-2547620Y-13646729D01*
X-2547620Y-13356590D01*
X-2706370Y-13197840D01*
X-3556000Y-13197840D01*
X-3556000Y-13996670D01*
X-3397250Y-14155420D01*
X-3308929Y-14155420D01*
X-3056310Y-14155420D01*
X-2822921Y-14058747D01*
X-2644293Y-13880118D01*
X-2547620Y-13646729D01*
X-2547620Y-14740642D01*
X-3420972Y-14522304D01*
X-3810000Y-14392627D01*
X-3810000Y-13996670D01*
X-3810000Y-13197840D01*
X-4659630Y-13197840D01*
X-4818380Y-13356590D01*
X-4818380Y-13646729D01*
X-4721707Y-13880118D01*
X-4543079Y-14058747D01*
X-4309690Y-14155420D01*
X-4057071Y-14155420D01*
X-3968750Y-14155420D01*
X-3810000Y-13996670D01*
X-3810000Y-14392627D01*
X-6390080Y-13532601D01*
X-7613572Y-12716940D01*
X-7306998Y-12235652D01*
X-7206459Y-12235740D01*
X-6910260Y-12113353D01*
X-6683443Y-11886932D01*
X-6560540Y-11590947D01*
X-6560260Y-11270459D01*
X-6682647Y-10974260D01*
X-6909068Y-10747443D01*
X-7205053Y-10624540D01*
X-7525541Y-10624260D01*
X-7821740Y-10746647D01*
X-8048557Y-10973068D01*
X-8171460Y-11269053D01*
X-8171740Y-11589541D01*
X-8119835Y-11715161D01*
X-8416840Y-12181427D01*
X-9344538Y-11562962D01*
X-11568510Y-9338990D01*
X-12793284Y-7624305D01*
X-13061675Y-7087524D01*
X-12453664Y-6806904D01*
X-12225947Y-6901460D01*
X-11905459Y-6901740D01*
X-11609260Y-6779353D01*
X-11382443Y-6552932D01*
X-11259540Y-6256947D01*
X-11259260Y-5936459D01*
X-11381647Y-5640260D01*
X-11608068Y-5413443D01*
X-11904053Y-5290540D01*
X-12224541Y-5290260D01*
X-12520740Y-5412647D01*
X-12747557Y-5639068D01*
X-12870460Y-5935053D01*
X-12870462Y-5936229D01*
X-13493536Y-6223802D01*
X-14018950Y-5172974D01*
X-14757400Y-1726874D01*
X-14757400Y279400D01*
X-14118540Y279400D01*
X-13918932Y79443D01*
X-13622947Y-43460D01*
X-13302459Y-43740D01*
X-13006260Y78647D01*
X-12779443Y305068D01*
X-12656540Y601053D01*
X-12656260Y921541D01*
X-12778647Y1217740D01*
X-13005068Y1444557D01*
X-13301053Y1567460D01*
X-13621541Y1567740D01*
X-13917740Y1445353D01*
X-14118845Y1244600D01*
X-14757400Y1244600D01*
X-14757400Y1484057D01*
X-14266802Y4427646D01*
X-12823351Y7520755D01*
X-12235722Y7228117D01*
X-12235740Y7206459D01*
X-12113353Y6910260D01*
X-11886932Y6683443D01*
X-11590947Y6560540D01*
X-11270459Y6560260D01*
X-10974260Y6682647D01*
X-10747443Y6909068D01*
X-10624540Y7205053D01*
X-10624260Y7525541D01*
X-10746647Y7821740D01*
X-10973068Y8048557D01*
X-11269053Y8171460D01*
X-11589541Y8171740D01*
X-11794940Y8086872D01*
X-12330367Y8353514D01*
X-10327279Y10579166D01*
X-8114828Y12545790D01*
X-7334691Y12905853D01*
X-7094190Y12500503D01*
X-7155460Y12352947D01*
X-7155740Y12032459D01*
X-7033353Y11736260D01*
X-6806932Y11509443D01*
X-6510947Y11386540D01*
X-6190459Y11386260D01*
X-5894260Y11508647D01*
X-5667443Y11735068D01*
X-5544540Y12031053D01*
X-5544260Y12351541D01*
X-5666647Y12647740D01*
X-5893068Y12874557D01*
X-6189053Y12997460D01*
X-6266782Y12997528D01*
X-6453651Y13312487D01*
X-4918951Y14020810D01*
X-1972589Y14757400D01*
X25400Y14757400D01*
X25400Y14118540D01*
X-174557Y13918932D01*
X-297460Y13622947D01*
X-297740Y13302459D01*
X-175353Y13006260D01*
X51068Y12779443D01*
X347053Y12656540D01*
X667541Y12656260D01*
X963740Y12778647D01*
X1190557Y13005068D01*
X1313460Y13301053D01*
X1313740Y13621541D01*
X1191353Y13917740D01*
X990600Y14118844D01*
X990600Y14757400D01*
X1972588Y14757400D01*
X4922299Y14019973D01*
X7138997Y13034773D01*
X7726855Y12667361D01*
X7386502Y12235583D01*
X7206459Y12235740D01*
X6910260Y12113353D01*
X6683443Y11886932D01*
X6560540Y11590947D01*
X6560260Y11270459D01*
X6682647Y10974260D01*
X6909068Y10747443D01*
X7205053Y10624540D01*
X7525541Y10624260D01*
X7821740Y10746647D01*
X8048557Y10973068D01*
X8171460Y11269053D01*
X8171740Y11589541D01*
X8149222Y11644037D01*
X8550224Y12152755D01*
X9104596Y11806273D01*
X10574484Y10458877D01*
X12060620Y8725052D01*
X13043783Y7250307D01*
X13074964Y7187944D01*
X12404914Y6827147D01*
X12225947Y6901460D01*
X11905459Y6901740D01*
X11609260Y6779353D01*
X11382443Y6552932D01*
X11259540Y6256947D01*
X11259260Y5936459D01*
X11381647Y5640260D01*
X11608068Y5413443D01*
X11904053Y5290540D01*
X12224541Y5290260D01*
X12520740Y5412647D01*
X12747557Y5639068D01*
X12870460Y5935053D01*
X12870500Y5981616D01*
X13475518Y6307395D01*
X13895420Y5299631D01*
X14475372Y3327792D01*
M02*
