G04 #@! TF.FileFunction,Legend,Bot*
%FSLAX46Y46*%
G04 Gerber Fmt 4.6, Leading zero omitted, Abs format (unit mm)*
G04 Created by KiCad (PCBNEW (2015-03-21 BZR 5528)-product) date Wed 25 Mar 2015 08:48:55 AM EET*
%MOMM*%
G01*
G04 APERTURE LIST*
%ADD10C,0.100000*%
%ADD11C,0.150000*%
%ADD12C,0.127000*%
%ADD13C,1.300000*%
%ADD14C,17.800000*%
%ADD15R,5.200000X2.500000*%
%ADD16R,1.000760X0.899160*%
%ADD17R,0.899160X1.000760*%
G04 APERTURE END LIST*
D10*
D11*
X-13448286Y7523810D02*
X-12638762Y7523810D01*
X-12543524Y7571429D01*
X-12495905Y7619048D01*
X-12448286Y7714287D01*
X-12448286Y7857144D01*
X-12495905Y7952382D01*
X-12829238Y7523810D02*
X-12781619Y7619048D01*
X-12781619Y7809525D01*
X-12829238Y7904763D01*
X-12876857Y7952382D01*
X-12972095Y8000001D01*
X-13257810Y8000001D01*
X-13353048Y7952382D01*
X-13400667Y7904763D01*
X-13448286Y7809525D01*
X-13448286Y7619048D01*
X-13400667Y7523810D01*
X-13781619Y7142858D02*
X-13781619Y6523810D01*
X-13400667Y6857144D01*
X-13400667Y6714286D01*
X-13353048Y6619048D01*
X-13305429Y6571429D01*
X-13210190Y6523810D01*
X-12972095Y6523810D01*
X-12876857Y6571429D01*
X-12829238Y6619048D01*
X-12781619Y6714286D01*
X-12781619Y7000001D01*
X-12829238Y7095239D01*
X-12876857Y7142858D01*
X-13781619Y6190477D02*
X-13781619Y5571429D01*
X-13400667Y5904763D01*
X-13400667Y5761905D01*
X-13353048Y5666667D01*
X-13305429Y5619048D01*
X-13210190Y5571429D01*
X-12972095Y5571429D01*
X-12876857Y5619048D01*
X-12829238Y5666667D01*
X-12781619Y5761905D01*
X-12781619Y6047620D01*
X-12829238Y6142858D01*
X-12876857Y6190477D01*
X-12781619Y5142858D02*
X-13781619Y5142858D01*
X-13162571Y5047620D02*
X-12781619Y4761905D01*
X-13448286Y4761905D02*
X-13067333Y5142858D01*
X-13448286Y4428572D02*
X-12781619Y4238096D01*
X-13257810Y4047619D01*
X-12781619Y3857143D01*
X-13448286Y3666667D01*
X-12781619Y2857143D02*
X-13305429Y2857143D01*
X-13400667Y2904762D01*
X-13448286Y3000000D01*
X-13448286Y3190477D01*
X-13400667Y3285715D01*
X-12829238Y2857143D02*
X-12781619Y2952381D01*
X-12781619Y3190477D01*
X-12829238Y3285715D01*
X-12924476Y3333334D01*
X-13019714Y3333334D01*
X-13114952Y3285715D01*
X-13162571Y3190477D01*
X-13162571Y2952381D01*
X-13210190Y2857143D01*
X-13448286Y2523810D02*
X-13448286Y2142858D01*
X-13781619Y2380953D02*
X-12924476Y2380953D01*
X-12829238Y2333334D01*
X-12781619Y2238096D01*
X-12781619Y2142858D01*
X-12829238Y1380952D02*
X-12781619Y1476190D01*
X-12781619Y1666667D01*
X-12829238Y1761905D01*
X-12876857Y1809524D01*
X-12972095Y1857143D01*
X-13257810Y1857143D01*
X-13353048Y1809524D01*
X-13400667Y1761905D01*
X-13448286Y1666667D01*
X-13448286Y1476190D01*
X-13400667Y1380952D01*
X-12781619Y952381D02*
X-13781619Y952381D01*
X-12781619Y523809D02*
X-13305429Y523809D01*
X-13400667Y571428D01*
X-13448286Y666666D01*
X-13448286Y809524D01*
X-13400667Y904762D01*
X-13353048Y952381D01*
X-13448286Y-619048D02*
X-12781619Y-857143D01*
X-13448286Y-1095239D01*
X-12781619Y-2000001D02*
X-12781619Y-1428572D01*
X-12781619Y-1714286D02*
X-13781619Y-1714286D01*
X-13638762Y-1619048D01*
X-13543524Y-1523810D01*
X-13495905Y-1428572D01*
X-12876857Y-2428572D02*
X-12829238Y-2476191D01*
X-12781619Y-2428572D01*
X-12829238Y-2380953D01*
X-12876857Y-2428572D01*
X-12781619Y-2428572D01*
X-13781619Y-3095238D02*
X-13781619Y-3190477D01*
X-13734000Y-3285715D01*
X-13686381Y-3333334D01*
X-13591143Y-3380953D01*
X-13400667Y-3428572D01*
X-13162571Y-3428572D01*
X-12972095Y-3380953D01*
X-12876857Y-3333334D01*
X-12829238Y-3285715D01*
X-12781619Y-3190477D01*
X-12781619Y-3095238D01*
X-12829238Y-3000000D01*
X-12876857Y-2952381D01*
X-12972095Y-2904762D01*
X-13162571Y-2857143D01*
X-13400667Y-2857143D01*
X-13591143Y-2904762D01*
X-13686381Y-2952381D01*
X-13734000Y-3000000D01*
X-13781619Y-3095238D01*
X-13686381Y-4571429D02*
X-13734000Y-4619048D01*
X-13781619Y-4714286D01*
X-13781619Y-4952382D01*
X-13734000Y-5047620D01*
X-13686381Y-5095239D01*
X-13591143Y-5142858D01*
X-13495905Y-5142858D01*
X-13353048Y-5095239D01*
X-12781619Y-4523810D01*
X-12781619Y-5142858D01*
X-13781619Y-5761905D02*
X-13781619Y-5857144D01*
X-13734000Y-5952382D01*
X-13686381Y-6000001D01*
X-13591143Y-6047620D01*
X-13400667Y-6095239D01*
X-13162571Y-6095239D01*
X-12972095Y-6047620D01*
X-12876857Y-6000001D01*
X-12829238Y-5952382D01*
X-12781619Y-5857144D01*
X-12781619Y-5761905D01*
X-12829238Y-5666667D01*
X-12876857Y-5619048D01*
X-12972095Y-5571429D01*
X-13162571Y-5523810D01*
X-13400667Y-5523810D01*
X-13591143Y-5571429D01*
X-13686381Y-5619048D01*
X-13734000Y-5666667D01*
X-13781619Y-5761905D01*
X-12781619Y-7047620D02*
X-12781619Y-6476191D01*
X-12781619Y-6761905D02*
X-13781619Y-6761905D01*
X-13638762Y-6666667D01*
X-13543524Y-6571429D01*
X-13495905Y-6476191D01*
X-13781619Y-7952382D02*
X-13781619Y-7476191D01*
X-13305429Y-7428572D01*
X-13353048Y-7476191D01*
X-13400667Y-7571429D01*
X-13400667Y-7809525D01*
X-13353048Y-7904763D01*
X-13305429Y-7952382D01*
X-13210190Y-8000001D01*
X-12972095Y-8000001D01*
X-12876857Y-7952382D01*
X-12829238Y-7904763D01*
X-12781619Y-7809525D01*
X-12781619Y-7571429D01*
X-12829238Y-7476191D01*
X-12876857Y-7428572D01*
X-11231619Y8333333D02*
X-11898286Y8333333D01*
X-11803048Y8333333D02*
X-11850667Y8285714D01*
X-11898286Y8190476D01*
X-11898286Y8047618D01*
X-11850667Y7952380D01*
X-11755429Y7904761D01*
X-11231619Y7904761D01*
X-11755429Y7904761D02*
X-11850667Y7857142D01*
X-11898286Y7761904D01*
X-11898286Y7619047D01*
X-11850667Y7523809D01*
X-11755429Y7476190D01*
X-11231619Y7476190D01*
X-11231619Y7000000D02*
X-11898286Y7000000D01*
X-12231619Y7000000D02*
X-12184000Y7047619D01*
X-12136381Y7000000D01*
X-12184000Y6952381D01*
X-12231619Y7000000D01*
X-12136381Y7000000D01*
X-11279238Y6095238D02*
X-11231619Y6190476D01*
X-11231619Y6380953D01*
X-11279238Y6476191D01*
X-11326857Y6523810D01*
X-11422095Y6571429D01*
X-11707810Y6571429D01*
X-11803048Y6523810D01*
X-11850667Y6476191D01*
X-11898286Y6380953D01*
X-11898286Y6190476D01*
X-11850667Y6095238D01*
X-11707810Y5047619D02*
X-11755429Y5095238D01*
X-11803048Y5190476D01*
X-11803048Y5285714D01*
X-11755429Y5380952D01*
X-11707810Y5428572D01*
X-11612571Y5476191D01*
X-11517333Y5476191D01*
X-11422095Y5428572D01*
X-11374476Y5380952D01*
X-11326857Y5285714D01*
X-11326857Y5190476D01*
X-11374476Y5095238D01*
X-11422095Y5047619D01*
X-11803048Y5047619D02*
X-11422095Y5047619D01*
X-11374476Y5000000D01*
X-11374476Y4952381D01*
X-11422095Y4857143D01*
X-11517333Y4809524D01*
X-11755429Y4809524D01*
X-11898286Y4904762D01*
X-11993524Y5047619D01*
X-12041143Y5238095D01*
X-11993524Y5428572D01*
X-11898286Y5571429D01*
X-11755429Y5666667D01*
X-11564952Y5714286D01*
X-11374476Y5666667D01*
X-11231619Y5571429D01*
X-11136381Y5428572D01*
X-11088762Y5238095D01*
X-11136381Y5047619D01*
X-11231619Y4904762D01*
X-11898286Y4476191D02*
X-11231619Y4285715D01*
X-11707810Y4095238D01*
X-11231619Y3904762D01*
X-11898286Y3714286D01*
X-11279238Y2952381D02*
X-11231619Y3047619D01*
X-11231619Y3238096D01*
X-11279238Y3333334D01*
X-11374476Y3380953D01*
X-11755429Y3380953D01*
X-11850667Y3333334D01*
X-11898286Y3238096D01*
X-11898286Y3047619D01*
X-11850667Y2952381D01*
X-11755429Y2904762D01*
X-11660190Y2904762D01*
X-11564952Y3380953D01*
X-11231619Y2476191D02*
X-11898286Y2476191D01*
X-11803048Y2476191D02*
X-11850667Y2428572D01*
X-11898286Y2333334D01*
X-11898286Y2190476D01*
X-11850667Y2095238D01*
X-11755429Y2047619D01*
X-11231619Y2047619D01*
X-11755429Y2047619D02*
X-11850667Y2000000D01*
X-11898286Y1904762D01*
X-11898286Y1761905D01*
X-11850667Y1666667D01*
X-11755429Y1619048D01*
X-11231619Y1619048D01*
X-11231619Y714286D02*
X-11755429Y714286D01*
X-11850667Y761905D01*
X-11898286Y857143D01*
X-11898286Y1047620D01*
X-11850667Y1142858D01*
X-11279238Y714286D02*
X-11231619Y809524D01*
X-11231619Y1047620D01*
X-11279238Y1142858D01*
X-11374476Y1190477D01*
X-11469714Y1190477D01*
X-11564952Y1142858D01*
X-11612571Y1047620D01*
X-11612571Y809524D01*
X-11660190Y714286D01*
X-11231619Y238096D02*
X-12231619Y238096D01*
X-11612571Y142858D02*
X-11231619Y-142857D01*
X-11898286Y-142857D02*
X-11517333Y238096D01*
X-11279238Y-952381D02*
X-11231619Y-857143D01*
X-11231619Y-666666D01*
X-11279238Y-571428D01*
X-11374476Y-523809D01*
X-11755429Y-523809D01*
X-11850667Y-571428D01*
X-11898286Y-666666D01*
X-11898286Y-857143D01*
X-11850667Y-952381D01*
X-11755429Y-1000000D01*
X-11660190Y-1000000D01*
X-11564952Y-523809D01*
X-11898286Y-1285714D02*
X-11898286Y-1666666D01*
X-12231619Y-1428571D02*
X-11374476Y-1428571D01*
X-11279238Y-1476190D01*
X-11231619Y-1571428D01*
X-11231619Y-1666666D01*
X-11231619Y-2000000D02*
X-12231619Y-2000000D01*
X-11231619Y-2428572D02*
X-11755429Y-2428572D01*
X-11850667Y-2380953D01*
X-11898286Y-2285715D01*
X-11898286Y-2142857D01*
X-11850667Y-2047619D01*
X-11803048Y-2000000D01*
X-11231619Y-2904762D02*
X-11898286Y-2904762D01*
X-12231619Y-2904762D02*
X-12184000Y-2857143D01*
X-12136381Y-2904762D01*
X-12184000Y-2952381D01*
X-12231619Y-2904762D01*
X-12136381Y-2904762D01*
X-11898286Y-3380952D02*
X-11231619Y-3380952D01*
X-11803048Y-3380952D02*
X-11850667Y-3428571D01*
X-11898286Y-3523809D01*
X-11898286Y-3666667D01*
X-11850667Y-3761905D01*
X-11755429Y-3809524D01*
X-11231619Y-3809524D01*
X-11898286Y-4714286D02*
X-11088762Y-4714286D01*
X-10993524Y-4666667D01*
X-10945905Y-4619048D01*
X-10898286Y-4523809D01*
X-10898286Y-4380952D01*
X-10945905Y-4285714D01*
X-11279238Y-4714286D02*
X-11231619Y-4619048D01*
X-11231619Y-4428571D01*
X-11279238Y-4333333D01*
X-11326857Y-4285714D01*
X-11422095Y-4238095D01*
X-11707810Y-4238095D01*
X-11803048Y-4285714D01*
X-11850667Y-4333333D01*
X-11898286Y-4428571D01*
X-11898286Y-4619048D01*
X-11850667Y-4714286D01*
X-11279238Y-5142857D02*
X-11231619Y-5238095D01*
X-11231619Y-5428571D01*
X-11279238Y-5523810D01*
X-11374476Y-5571429D01*
X-11422095Y-5571429D01*
X-11517333Y-5523810D01*
X-11564952Y-5428571D01*
X-11564952Y-5285714D01*
X-11612571Y-5190476D01*
X-11707810Y-5142857D01*
X-11755429Y-5142857D01*
X-11850667Y-5190476D01*
X-11898286Y-5285714D01*
X-11898286Y-5428571D01*
X-11850667Y-5523810D01*
X-11326857Y-6000000D02*
X-11279238Y-6047619D01*
X-11231619Y-6000000D01*
X-11279238Y-5952381D01*
X-11326857Y-6000000D01*
X-11231619Y-6000000D01*
X-11898286Y-6476190D02*
X-11231619Y-6476190D01*
X-11803048Y-6476190D02*
X-11850667Y-6523809D01*
X-11898286Y-6619047D01*
X-11898286Y-6761905D01*
X-11850667Y-6857143D01*
X-11755429Y-6904762D01*
X-11231619Y-6904762D01*
X-11279238Y-7761905D02*
X-11231619Y-7666667D01*
X-11231619Y-7476190D01*
X-11279238Y-7380952D01*
X-11374476Y-7333333D01*
X-11755429Y-7333333D01*
X-11850667Y-7380952D01*
X-11898286Y-7476190D01*
X-11898286Y-7666667D01*
X-11850667Y-7761905D01*
X-11755429Y-7809524D01*
X-11660190Y-7809524D01*
X-11564952Y-7333333D01*
X-11898286Y-8095238D02*
X-11898286Y-8476190D01*
X-12231619Y-8238095D02*
X-11374476Y-8238095D01*
X-11279238Y-8285714D01*
X-11231619Y-8380952D01*
X-11231619Y-8476190D01*
X-9300667Y10023811D02*
X-9348286Y10071431D01*
X-9491143Y10166669D01*
X-9586381Y10214288D01*
X-9729238Y10261907D01*
X-9967333Y10309526D01*
X-10157810Y10309526D01*
X-10395905Y10261907D01*
X-10538762Y10214288D01*
X-10634000Y10166669D01*
X-10776857Y10071431D01*
X-10824476Y10023811D01*
X-9729238Y9214287D02*
X-9681619Y9309525D01*
X-9681619Y9500002D01*
X-9729238Y9595240D01*
X-9776857Y9642859D01*
X-9872095Y9690478D01*
X-10157810Y9690478D01*
X-10253048Y9642859D01*
X-10300667Y9595240D01*
X-10348286Y9500002D01*
X-10348286Y9309525D01*
X-10300667Y9214287D01*
X-9300667Y8880954D02*
X-9348286Y8833335D01*
X-9491143Y8738097D01*
X-9586381Y8690478D01*
X-9729238Y8642859D01*
X-9967333Y8595240D01*
X-10157810Y8595240D01*
X-10395905Y8642859D01*
X-10538762Y8690478D01*
X-10634000Y8738097D01*
X-10776857Y8833335D01*
X-10824476Y8880954D01*
X-9967333Y7404763D02*
X-9967333Y6928572D01*
X-9681619Y7500001D02*
X-10681619Y7166668D01*
X-9681619Y6833334D01*
X-9681619Y6357144D02*
X-9729238Y6452382D01*
X-9824476Y6500001D01*
X-10681619Y6500001D01*
X-9681619Y5976191D02*
X-10681619Y5976191D01*
X-10300667Y5976191D02*
X-10348286Y5880953D01*
X-10348286Y5690476D01*
X-10300667Y5595238D01*
X-10253048Y5547619D01*
X-10157810Y5500000D01*
X-9872095Y5500000D01*
X-9776857Y5547619D01*
X-9729238Y5595238D01*
X-9681619Y5690476D01*
X-9681619Y5880953D01*
X-9729238Y5976191D01*
X-9729238Y4690476D02*
X-9681619Y4785714D01*
X-9681619Y4976191D01*
X-9729238Y5071429D01*
X-9824476Y5119048D01*
X-10205429Y5119048D01*
X-10300667Y5071429D01*
X-10348286Y4976191D01*
X-10348286Y4785714D01*
X-10300667Y4690476D01*
X-10205429Y4642857D01*
X-10110190Y4642857D01*
X-10014952Y5119048D01*
X-9681619Y4214286D02*
X-10348286Y4214286D01*
X-10157810Y4214286D02*
X-10253048Y4166667D01*
X-10300667Y4119048D01*
X-10348286Y4023810D01*
X-10348286Y3928571D01*
X-10348286Y3738095D02*
X-10348286Y3357143D01*
X-10681619Y3595238D02*
X-9824476Y3595238D01*
X-9729238Y3547619D01*
X-9681619Y3452381D01*
X-9681619Y3357143D01*
X-9681619Y2595237D02*
X-10205429Y2595237D01*
X-10300667Y2642856D01*
X-10348286Y2738094D01*
X-10348286Y2928571D01*
X-10300667Y3023809D01*
X-9729238Y2595237D02*
X-9681619Y2690475D01*
X-9681619Y2928571D01*
X-9729238Y3023809D01*
X-9824476Y3071428D01*
X-9919714Y3071428D01*
X-10014952Y3023809D01*
X-10062571Y2928571D01*
X-10062571Y2690475D01*
X-10110190Y2595237D01*
X-9729238Y2166666D02*
X-9681619Y2071428D01*
X-9681619Y1880952D01*
X-9729238Y1785713D01*
X-9824476Y1738094D01*
X-9872095Y1738094D01*
X-9967333Y1785713D01*
X-10014952Y1880952D01*
X-10014952Y2023809D01*
X-10062571Y2119047D01*
X-10157810Y2166666D01*
X-10205429Y2166666D01*
X-10300667Y2119047D01*
X-10348286Y2023809D01*
X-10348286Y1880952D01*
X-10300667Y1785713D01*
X-9681619Y547618D02*
X-10681619Y547618D01*
X-9967333Y214284D01*
X-10681619Y-119049D01*
X-9681619Y-119049D01*
X-9681619Y-595239D02*
X-10348286Y-595239D01*
X-10681619Y-595239D02*
X-10634000Y-547620D01*
X-10586381Y-595239D01*
X-10634000Y-642858D01*
X-10681619Y-595239D01*
X-10586381Y-595239D01*
X-9729238Y-1500001D02*
X-9681619Y-1404763D01*
X-9681619Y-1214286D01*
X-9729238Y-1119048D01*
X-9776857Y-1071429D01*
X-9872095Y-1023810D01*
X-10157810Y-1023810D01*
X-10253048Y-1071429D01*
X-10300667Y-1119048D01*
X-10348286Y-1214286D01*
X-10348286Y-1404763D01*
X-10300667Y-1500001D01*
X-9681619Y-1928572D02*
X-10681619Y-1928572D01*
X-10062571Y-2023810D02*
X-9681619Y-2309525D01*
X-10348286Y-2309525D02*
X-9967333Y-1928572D01*
X-9729238Y-3119049D02*
X-9681619Y-3023811D01*
X-9681619Y-2833334D01*
X-9729238Y-2738096D01*
X-9824476Y-2690477D01*
X-10205429Y-2690477D01*
X-10300667Y-2738096D01*
X-10348286Y-2833334D01*
X-10348286Y-3023811D01*
X-10300667Y-3119049D01*
X-10205429Y-3166668D01*
X-10110190Y-3166668D01*
X-10014952Y-2690477D01*
X-10681619Y-2928572D02*
X-10634000Y-2880953D01*
X-10586381Y-2928572D01*
X-10634000Y-2976191D01*
X-10681619Y-2928572D01*
X-10586381Y-2928572D01*
X-10348286Y-3595239D02*
X-9681619Y-3595239D01*
X-10253048Y-3595239D02*
X-10300667Y-3642858D01*
X-10348286Y-3738096D01*
X-10348286Y-3880954D01*
X-10300667Y-3976192D01*
X-10205429Y-4023811D01*
X-9681619Y-4023811D01*
X-9681619Y-4928573D02*
X-10205429Y-4928573D01*
X-10300667Y-4880954D01*
X-10348286Y-4785716D01*
X-10348286Y-4595239D01*
X-10300667Y-4500001D01*
X-9729238Y-4928573D02*
X-9681619Y-4833335D01*
X-9681619Y-4595239D01*
X-9729238Y-4500001D01*
X-9824476Y-4452382D01*
X-9919714Y-4452382D01*
X-10014952Y-4500001D01*
X-10062571Y-4595239D01*
X-10062571Y-4833335D01*
X-10110190Y-4928573D01*
X-9729238Y-5357144D02*
X-9681619Y-5452382D01*
X-9681619Y-5642858D01*
X-9729238Y-5738097D01*
X-9824476Y-5785716D01*
X-9872095Y-5785716D01*
X-9967333Y-5738097D01*
X-10014952Y-5642858D01*
X-10014952Y-5500001D01*
X-10062571Y-5404763D01*
X-10157810Y-5357144D01*
X-10205429Y-5357144D01*
X-10300667Y-5404763D01*
X-10348286Y-5500001D01*
X-10348286Y-5642858D01*
X-10300667Y-5738097D01*
X-10586381Y-6928573D02*
X-10634000Y-6976192D01*
X-10681619Y-7071430D01*
X-10681619Y-7309526D01*
X-10634000Y-7404764D01*
X-10586381Y-7452383D01*
X-10491143Y-7500002D01*
X-10395905Y-7500002D01*
X-10253048Y-7452383D01*
X-9681619Y-6880954D01*
X-9681619Y-7500002D01*
X-10681619Y-8119049D02*
X-10681619Y-8214288D01*
X-10634000Y-8309526D01*
X-10586381Y-8357145D01*
X-10491143Y-8404764D01*
X-10300667Y-8452383D01*
X-10062571Y-8452383D01*
X-9872095Y-8404764D01*
X-9776857Y-8357145D01*
X-9729238Y-8309526D01*
X-9681619Y-8214288D01*
X-9681619Y-8119049D01*
X-9729238Y-8023811D01*
X-9776857Y-7976192D01*
X-9872095Y-7928573D01*
X-10062571Y-7880954D01*
X-10300667Y-7880954D01*
X-10491143Y-7928573D01*
X-10586381Y-7976192D01*
X-10634000Y-8023811D01*
X-10681619Y-8119049D01*
X-9681619Y-9404764D02*
X-9681619Y-8833335D01*
X-9681619Y-9119049D02*
X-10681619Y-9119049D01*
X-10538762Y-9023811D01*
X-10443524Y-8928573D01*
X-10395905Y-8833335D01*
X-10681619Y-10309526D02*
X-10681619Y-9833335D01*
X-10205429Y-9785716D01*
X-10253048Y-9833335D01*
X-10300667Y-9928573D01*
X-10300667Y-10166669D01*
X-10253048Y-10261907D01*
X-10205429Y-10309526D01*
X-10110190Y-10357145D01*
X-9872095Y-10357145D01*
X-9776857Y-10309526D01*
X-9729238Y-10261907D01*
X-9681619Y-10166669D01*
X-9681619Y-9928573D01*
X-9729238Y-9833335D01*
X-9776857Y-9785716D01*
D12*
X-4089400Y-11760200D02*
X-3276600Y-11760200D01*
X-3302000Y-12877800D02*
X-4089400Y-12877800D01*
X-3276600Y-13131800D02*
X-3276600Y-11506200D01*
X-3276600Y-11506200D02*
X-4089400Y-11506200D01*
X-4089400Y-11506200D02*
X-4089400Y-13131800D01*
X-4089400Y-13131800D02*
X-3276600Y-13131800D01*
X-3962400Y12750800D02*
X-3149600Y12750800D01*
X-3175000Y11633200D02*
X-3962400Y11633200D01*
X-3149600Y11379200D02*
X-3149600Y13004800D01*
X-3149600Y13004800D02*
X-3962400Y13004800D01*
X-3962400Y13004800D02*
X-3962400Y11379200D01*
X-3962400Y11379200D02*
X-3149600Y11379200D01*
X13512800Y3073400D02*
X13512800Y2260600D01*
X12395200Y2286000D02*
X12395200Y3073400D01*
X12141200Y2260600D02*
X13766800Y2260600D01*
X13766800Y2260600D02*
X13766800Y3073400D01*
X13766800Y3073400D02*
X12141200Y3073400D01*
X12141200Y3073400D02*
X12141200Y2260600D01*
X13512800Y1930400D02*
X13512800Y1117600D01*
X12395200Y1143000D02*
X12395200Y1930400D01*
X12141200Y1117600D02*
X13766800Y1117600D01*
X13766800Y1117600D02*
X13766800Y1930400D01*
X13766800Y1930400D02*
X12141200Y1930400D01*
X12141200Y1930400D02*
X12141200Y1117600D01*
%LPC*%
D10*
G36*
X9341883Y-1516056D02*
X9807757Y222611D01*
X11063461Y-113854D01*
X10597587Y-1852521D01*
X9341883Y-1516056D01*
X9341883Y-1516056D01*
G37*
D13*
X9620329Y-2988288D02*
X9490919Y-3471250D01*
X12199229Y-1091112D02*
X12069819Y-1574074D01*
X11552181Y-3505926D02*
X11422771Y-3988888D01*
X14131081Y-1608750D02*
X14001671Y-2091712D01*
X13484033Y-4023564D02*
X13354623Y-4506526D01*
D14*
X0Y0D03*
D15*
X0Y-10985000D03*
X0Y10985000D03*
D16*
X-3683000Y-11567160D03*
X-3683000Y-13070840D03*
X-3556000Y12943840D03*
X-3556000Y11440160D03*
D17*
X13705840Y2667000D03*
X12202160Y2667000D03*
X13705840Y1524000D03*
X12202160Y1524000D03*
M02*
