M48
;DRILL file {kicad (2015-03-21 BZR 5528)-product} date Wed 25 Mar 2015 08:40:07 AM EET
;FORMAT={-:-/ absolute / metric / decimal}
FMAT,2
METRIC,TZ
T1C0.400
%
G90
G05
M71
T1
X-16.383Y-0.254
X-14.224Y7.747
X-13.97Y-8.382
X-13.462Y0.762
X-12.065Y-6.096
X-11.43Y7.366
X-10.16Y0.381
X-8.382Y13.97
X-7.747Y-14.224
X-7.366Y-11.43
X-6.35Y12.192
X-2.673Y9.163
X-0.862Y0.862
X-0.862Y-0.862
X-0.762Y-13.462
X-0.254Y16.129
X0.381Y-16.256
X0.508Y13.462
X6.096Y-11.938
X7.366Y11.43
X7.874Y14.224
X8.255Y-13.97
X8.477Y-4.238
X8.758Y-6.077
X10.287Y-4.572
X11.176Y2.667
X11.176Y-7.239
X11.199Y1.547
X12.065Y6.096
X12.07Y-1.574
X13.843Y8.509
X14.224Y-7.747
X14.605Y1.143
X15.113Y-0.508
X16.383Y0.381
T0
M30
